<svg xmlns="http://www.w3.org/2000/svg" xmlns:xlink="http://www.w3.org/1999/xlink" width="500" zoomAndPan="magnify" viewBox="0 0 375 120" height="150" preserveAspectRatio="xMidYMid meet" version="1.0"><defs><g/><clipPath id="a41b5eeb1e"><path d="M 0.398438 20 L 50 20 L 50 85 L 0.398438 85 Z M 0.398438 20 " clip-rule="nonzero"/></clipPath><clipPath id="31b58bbbc9"><rect x="0" width="178" y="0" height="94"/></clipPath><clipPath id="a72205aa2b"><rect x="0" width="185" y="0" height="94"/></clipPath><clipPath id="a2c430b6a6"><path d="M 0.160156 3 L 8 3 L 8 14 L 0.160156 14 Z M 0.160156 3 " clip-rule="nonzero"/></clipPath><clipPath id="3a3ffab133"><rect x="0" width="186" y="0" height="17"/></clipPath></defs><g transform="matrix(1, 0, 0, 1, 8, 0)"><g clip-path="url(#31b58bbbc9)"><g clip-path="url(#a41b5eeb1e)"><g fill="#004aad" fill-opacity="1"><g transform="translate(0.859577, 84.59912)"><g><path d="M 48.53125 -51.953125 L 36.359375 -51.953125 C 34.816406 -52.003906 33.007812 -51.960938 30.9375 -51.828125 C 28.875 -51.703125 26.753906 -51.304688 24.578125 -50.640625 C 22.410156 -49.972656 20.382812 -48.921875 18.5 -47.484375 C 16.613281 -46.054688 15.097656 -44.070312 13.953125 -41.53125 C 12.816406 -38.988281 12.25 -35.753906 12.25 -31.828125 C 12.25 -26.785156 13.296875 -22.738281 15.390625 -19.6875 C 17.484375 -16.632812 20.347656 -14.472656 23.984375 -13.203125 C 27.617188 -11.929688 31.742188 -11.398438 36.359375 -11.609375 L 36.359375 -27.53125 L 24.109375 -27.53125 L 24.109375 -39.703125 L 48.53125 -39.703125 L 48.53125 -0.71875 C 48.53125 -0.238281 48.238281 0 47.65625 0 L 37.3125 0 C 34.1875 0 30.910156 -0.207031 27.484375 -0.625 C 24.066406 -1.050781 20.726562 -1.875 17.46875 -3.09375 C 14.207031 -4.320312 11.257812 -6.101562 8.625 -8.4375 C 6 -10.769531 3.90625 -13.84375 2.34375 -17.65625 C 0.78125 -21.476562 0 -26.203125 0 -31.828125 C 0 -37.285156 0.765625 -41.882812 2.296875 -45.625 C 3.835938 -49.363281 5.921875 -52.410156 8.546875 -54.765625 C 11.171875 -57.128906 14.101562 -58.960938 17.34375 -60.265625 C 20.582031 -61.566406 23.925781 -62.457031 27.375 -62.9375 C 30.820312 -63.414062 34.132812 -63.65625 37.3125 -63.65625 L 47.65625 -63.65625 C 48.238281 -63.65625 48.53125 -63.414062 48.53125 -62.9375 Z M 48.53125 -51.953125 "/></g></g></g></g><g fill="#ffffff" fill-opacity="1"><g transform="translate(51.864271, 84.59912)"><g><path d="M 37.15625 -37.71875 C 37.738281 -37.71875 38.03125 -37.476562 38.03125 -37 L 38.03125 -26.890625 C 38.03125 -26.410156 37.738281 -26.171875 37.15625 -26.171875 L 12.171875 -26.171875 L 12.171875 0 L 0.875 0 C 0.289062 0 0 -0.238281 0 -0.71875 L 0 -62.9375 C 0 -63.414062 0.289062 -63.65625 0.875 -63.65625 L 30.234375 -63.65625 L 30.234375 -52.109375 L 12.171875 -52.109375 L 12.171875 -37.71875 Z M 37.15625 -37.71875 "/></g></g></g><g fill="#ffffff" fill-opacity="1"><g transform="translate(91.798518, 84.59912)"><g><path d="M 30.234375 -11.859375 L 30.234375 0 L 0.875 0 C 0.289062 0 0 -0.238281 0 -0.71875 L 0 -62.9375 C 0 -63.414062 0.289062 -63.65625 0.875 -63.65625 L 30.234375 -63.65625 L 30.234375 -52.109375 L 12.171875 -52.109375 L 12.171875 -37.71875 L 37.15625 -37.71875 C 37.738281 -37.71875 38.03125 -37.476562 38.03125 -37 L 38.03125 -26.890625 C 38.03125 -26.410156 37.738281 -26.171875 37.15625 -26.171875 L 12.171875 -26.171875 L 12.171875 -11.859375 Z M 30.234375 -11.859375 "/></g></g></g><g fill="#ffffff" fill-opacity="1"><g transform="translate(131.732765, 84.59912)"><g><path d="M 43.4375 -1.03125 C 43.539062 -0.769531 43.523438 -0.53125 43.390625 -0.3125 C 43.265625 -0.101562 43.039062 0 42.71875 0 L 31.34375 0 C 30.925781 0 30.660156 -0.160156 30.546875 -0.484375 L 18.9375 -25.703125 L 12.09375 -25.703125 L 12.09375 -0.71875 C 12.09375 -0.238281 11.800781 0 11.21875 0 L 0.796875 0 C 0.265625 0 0 -0.238281 0 -0.71875 L 0 -37.390625 L 21.40625 -37.390625 C 22.039062 -37.390625 22.890625 -37.441406 23.953125 -37.546875 C 25.015625 -37.660156 26.0625 -37.953125 27.09375 -38.421875 C 28.125 -38.898438 29 -39.628906 29.71875 -40.609375 C 30.4375 -41.597656 30.796875 -42.96875 30.796875 -44.71875 C 30.796875 -46.46875 30.410156 -47.84375 29.640625 -48.84375 C 28.867188 -49.851562 27.925781 -50.582031 26.8125 -51.03125 C 25.695312 -51.488281 24.632812 -51.78125 23.625 -51.90625 C 22.625 -52.039062 21.882812 -52.109375 21.40625 -52.109375 L 0 -52.109375 L 0 -62.9375 C 0 -63.414062 0.265625 -63.65625 0.796875 -63.65625 L 21.40625 -63.65625 C 22.144531 -63.65625 23.335938 -63.585938 24.984375 -63.453125 C 26.628906 -63.316406 28.472656 -62.957031 30.515625 -62.375 C 32.554688 -61.789062 34.515625 -60.835938 36.390625 -59.515625 C 38.273438 -58.191406 39.828125 -56.332031 41.046875 -53.9375 C 42.273438 -51.550781 42.890625 -48.476562 42.890625 -44.71875 C 42.890625 -41.476562 42.359375 -38.726562 41.296875 -36.46875 C 40.234375 -34.21875 38.8125 -32.375 37.03125 -30.9375 C 35.257812 -29.507812 33.3125 -28.398438 31.1875 -27.609375 C 33.207031 -23.097656 35.265625 -18.640625 37.359375 -14.234375 C 39.453125 -9.835938 41.476562 -5.4375 43.4375 -1.03125 Z M 43.4375 -1.03125 "/></g></g></g></g></g><g transform="matrix(1, 0, 0, 1, 180, 0)"><g clip-path="url(#a72205aa2b)"><g fill="#004aad" fill-opacity="1"><g transform="translate(1.455766, 84.601859)"><g><path d="M 13.125 -40.5625 L 25.21875 -40.5625 L 25.21875 -0.71875 C 25.21875 -0.238281 24.894531 0 24.25 0 L 14 0 C 13.414062 0 13.125 -0.238281 13.125 -0.71875 Z M 0.875 -52.734375 C 0.289062 -52.734375 0 -52.96875 0 -53.4375 L 0 -62.90625 C 0 -63.382812 0.289062 -63.625 0.875 -63.625 L 37.375 -63.625 C 37.957031 -63.625 38.25 -63.382812 38.25 -62.90625 L 38.25 -53.4375 C 38.25 -52.96875 37.957031 -52.734375 37.375 -52.734375 Z M 0.875 -52.734375 "/></g></g></g><g fill="#ffffff" fill-opacity="1"><g transform="translate(41.625474, 84.601859)"><g><path d="M 30.21875 -11.84375 L 30.21875 0 L 0.875 0 C 0.289062 0 0 -0.238281 0 -0.71875 L 0 -62.90625 C 0 -63.382812 0.289062 -63.625 0.875 -63.625 L 30.21875 -63.625 L 30.21875 -52.09375 L 12.171875 -52.09375 L 12.171875 -37.703125 L 37.140625 -37.703125 C 37.722656 -37.703125 38.015625 -37.460938 38.015625 -36.984375 L 38.015625 -26.875 C 38.015625 -26.40625 37.722656 -26.171875 37.140625 -26.171875 L 12.171875 -26.171875 L 12.171875 -11.84375 Z M 30.21875 -11.84375 "/></g></g></g><g fill="#ffffff" fill-opacity="1"><g transform="translate(81.546293, 84.601859)"><g><path d="M 36.34375 -11.6875 L 48.515625 -11.6875 L 48.515625 -0.71875 C 48.515625 -0.238281 48.222656 0 47.640625 0 L 37.296875 0 C 34.117188 0 30.804688 -0.238281 27.359375 -0.71875 C 23.910156 -1.195312 20.566406 -2.082031 17.328125 -3.375 C 14.097656 -4.675781 11.171875 -6.503906 8.546875 -8.859375 C 5.921875 -11.222656 3.835938 -14.273438 2.296875 -18.015625 C 0.765625 -21.753906 0 -26.351562 0 -31.8125 C 0 -37.4375 0.78125 -42.15625 2.34375 -45.96875 C 3.90625 -49.78125 6 -52.851562 8.625 -55.1875 C 11.25 -57.519531 14.191406 -59.296875 17.453125 -60.515625 C 20.710938 -61.742188 24.050781 -62.566406 27.46875 -62.984375 C 30.894531 -63.410156 34.171875 -63.625 37.296875 -63.625 L 47.640625 -63.625 C 48.222656 -63.625 48.515625 -63.382812 48.515625 -62.90625 L 48.515625 -37.9375 L 36.34375 -37.9375 L 36.34375 -52.015625 C 31.726562 -52.273438 27.601562 -51.753906 23.96875 -50.453125 C 20.34375 -49.160156 17.484375 -46.988281 15.390625 -43.9375 C 13.296875 -40.894531 12.25 -36.851562 12.25 -31.8125 C 12.25 -27.882812 12.816406 -24.648438 13.953125 -22.109375 C 15.097656 -19.566406 16.609375 -17.578125 18.484375 -16.140625 C 20.367188 -14.710938 22.394531 -13.664062 24.5625 -13 C 26.738281 -12.34375 28.863281 -11.945312 30.9375 -11.8125 C 33.007812 -11.675781 34.8125 -11.632812 36.34375 -11.6875 Z M 36.34375 -11.6875 "/></g></g></g><g fill="#ffffff" fill-opacity="1"><g transform="translate(132.52089, 84.601859)"><g><path d="M 12.171875 -36.03125 L 0 -36.03125 L 0 -62.90625 C 0 -63.382812 0.289062 -63.625 0.875 -63.625 L 11.296875 -63.625 C 11.878906 -63.625 12.171875 -63.382812 12.171875 -62.90625 Z M 47.5625 -63.625 C 48.144531 -63.625 48.4375 -63.382812 48.4375 -62.90625 L 48.4375 -0.71875 C 48.4375 -0.238281 48.144531 0 47.5625 0 L 37.140625 0 C 36.554688 0 36.265625 -0.238281 36.265625 -0.71875 L 36.265625 -11.921875 L 12.171875 -11.921875 L 12.171875 -0.71875 C 12.171875 -0.238281 11.878906 0 11.296875 0 L 0.875 0 C 0.289062 0 0 -0.238281 0 -0.71875 L 0 -23.859375 L 12.171875 -23.859375 L 12.171875 -23.78125 L 36.265625 -23.78125 L 36.265625 -62.90625 C 36.265625 -63.382812 36.554688 -63.625 37.140625 -63.625 Z M 47.5625 -63.625 "/></g></g></g></g></g><g transform="matrix(1, 0, 0, 1, 98, 88)"><g clip-path="url(#3a3ffab133)"><g clip-path="url(#a2c430b6a6)"><g fill="#ffffff" fill-opacity="1"><g transform="translate(0.354927, 12.982919)"><g><path d="M 3.734375 0.234375 C 3.273438 0.234375 2.800781 0.191406 2.3125 0.109375 C 1.832031 0.0351562 1.304688 -0.0976562 0.734375 -0.296875 C 0.578125 -0.359375 0.53125 -0.460938 0.59375 -0.609375 L 1.046875 -1.953125 C 1.097656 -2.097656 1.207031 -2.144531 1.375 -2.09375 C 1.789062 -1.925781 2.203125 -1.796875 2.609375 -1.703125 C 3.023438 -1.617188 3.394531 -1.578125 3.71875 -1.578125 C 4.101562 -1.578125 4.410156 -1.644531 4.640625 -1.78125 C 4.878906 -1.914062 5 -2.125 5 -2.40625 C 5 -2.59375 4.9375 -2.753906 4.8125 -2.890625 C 4.6875 -3.035156 4.515625 -3.171875 4.296875 -3.296875 C 4.085938 -3.429688 3.847656 -3.5625 3.578125 -3.6875 C 3.304688 -3.820312 3.03125 -3.960938 2.75 -4.109375 C 2.476562 -4.253906 2.210938 -4.410156 1.953125 -4.578125 C 1.703125 -4.753906 1.476562 -4.945312 1.28125 -5.15625 C 1.082031 -5.375 0.925781 -5.625 0.8125 -5.90625 C 0.707031 -6.195312 0.65625 -6.523438 0.65625 -6.890625 C 0.65625 -7.367188 0.742188 -7.78125 0.921875 -8.125 C 1.097656 -8.46875 1.335938 -8.742188 1.640625 -8.953125 C 1.941406 -9.171875 2.285156 -9.328125 2.671875 -9.421875 C 3.066406 -9.523438 3.46875 -9.578125 3.875 -9.578125 C 4.125 -9.578125 4.390625 -9.554688 4.671875 -9.515625 C 4.960938 -9.484375 5.253906 -9.429688 5.546875 -9.359375 C 5.835938 -9.296875 6.125 -9.210938 6.40625 -9.109375 C 6.5625 -9.054688 6.613281 -8.953125 6.5625 -8.796875 L 6.171875 -7.53125 C 6.109375 -7.375 6 -7.320312 5.84375 -7.375 C 5.53125 -7.5 5.207031 -7.59375 4.875 -7.65625 C 4.539062 -7.726562 4.226562 -7.765625 3.9375 -7.765625 C 3.726562 -7.765625 3.535156 -7.738281 3.359375 -7.6875 C 3.191406 -7.644531 3.054688 -7.570312 2.953125 -7.46875 C 2.859375 -7.363281 2.8125 -7.222656 2.8125 -7.046875 C 2.8125 -6.867188 2.859375 -6.710938 2.953125 -6.578125 C 3.054688 -6.453125 3.195312 -6.328125 3.375 -6.203125 C 3.5625 -6.085938 3.773438 -5.972656 4.015625 -5.859375 C 4.253906 -5.742188 4.507812 -5.625 4.78125 -5.5 C 5.0625 -5.363281 5.34375 -5.207031 5.625 -5.03125 C 5.90625 -4.851562 6.160156 -4.648438 6.390625 -4.421875 C 6.628906 -4.203125 6.816406 -3.929688 6.953125 -3.609375 C 7.097656 -3.296875 7.171875 -2.929688 7.171875 -2.515625 C 7.171875 -2.109375 7.101562 -1.75 6.96875 -1.4375 C 6.84375 -1.132812 6.664062 -0.875 6.4375 -0.65625 C 6.21875 -0.445312 5.960938 -0.273438 5.671875 -0.140625 C 5.378906 -0.00390625 5.066406 0.0859375 4.734375 0.140625 C 4.410156 0.203125 4.078125 0.234375 3.734375 0.234375 Z M 3.734375 0.234375 "/></g></g></g></g><g fill="#ffffff" fill-opacity="1"><g transform="translate(8.028938, 12.982919)"><g><path d="M 5.546875 0.234375 C 4.804688 0.234375 4.128906 0.117188 3.515625 -0.109375 C 2.910156 -0.335938 2.382812 -0.664062 1.9375 -1.09375 C 1.488281 -1.53125 1.144531 -2.050781 0.90625 -2.65625 C 0.664062 -3.257812 0.546875 -3.929688 0.546875 -4.671875 C 0.546875 -5.410156 0.664062 -6.082031 0.90625 -6.6875 C 1.144531 -7.289062 1.488281 -7.804688 1.9375 -8.234375 C 2.382812 -8.671875 2.910156 -9.003906 3.515625 -9.234375 C 4.128906 -9.460938 4.804688 -9.578125 5.546875 -9.578125 C 6.285156 -9.578125 6.960938 -9.460938 7.578125 -9.234375 C 8.191406 -9.003906 8.71875 -8.671875 9.15625 -8.234375 C 9.601562 -7.804688 9.945312 -7.289062 10.1875 -6.6875 C 10.4375 -6.082031 10.5625 -5.410156 10.5625 -4.671875 C 10.5625 -3.929688 10.4375 -3.257812 10.1875 -2.65625 C 9.945312 -2.050781 9.601562 -1.53125 9.15625 -1.09375 C 8.71875 -0.664062 8.191406 -0.335938 7.578125 -0.109375 C 6.960938 0.117188 6.285156 0.234375 5.546875 0.234375 Z M 5.546875 -1.703125 C 5.960938 -1.703125 6.347656 -1.769531 6.703125 -1.90625 C 7.054688 -2.039062 7.363281 -2.238281 7.625 -2.5 C 7.882812 -2.757812 8.082031 -3.070312 8.21875 -3.4375 C 8.363281 -3.800781 8.4375 -4.210938 8.4375 -4.671875 C 8.4375 -5.117188 8.363281 -5.523438 8.21875 -5.890625 C 8.082031 -6.265625 7.882812 -6.578125 7.625 -6.828125 C 7.363281 -7.085938 7.054688 -7.285156 6.703125 -7.421875 C 6.347656 -7.566406 5.960938 -7.640625 5.546875 -7.640625 C 5.117188 -7.640625 4.726562 -7.566406 4.375 -7.421875 C 4.03125 -7.285156 3.726562 -7.085938 3.46875 -6.828125 C 3.21875 -6.578125 3.019531 -6.265625 2.875 -5.890625 C 2.738281 -5.523438 2.671875 -5.117188 2.671875 -4.671875 C 2.671875 -4.222656 2.738281 -3.816406 2.875 -3.453125 C 3.019531 -3.085938 3.21875 -2.773438 3.46875 -2.515625 C 3.726562 -2.253906 4.035156 -2.050781 4.390625 -1.90625 C 4.742188 -1.769531 5.128906 -1.703125 5.546875 -1.703125 Z M 5.546875 -1.703125 "/></g></g></g><g fill="#ffffff" fill-opacity="1"><g transform="translate(19.144701, 12.982919)"><g><path d="M 5.84375 0 L 1.171875 0 C 1.003906 0 0.921875 -0.0820312 0.921875 -0.25 L 0.921875 -9.09375 C 0.921875 -9.257812 1.003906 -9.34375 1.171875 -9.34375 L 2.796875 -9.34375 C 2.960938 -9.34375 3.046875 -9.257812 3.046875 -9.09375 L 3.046875 -1.84375 L 5.84375 -1.84375 C 6.007812 -1.84375 6.09375 -1.757812 6.09375 -1.59375 L 6.09375 -0.25 C 6.09375 -0.0820312 6.007812 0 5.84375 0 Z M 5.84375 0 "/></g></g></g><g fill="#ffffff" fill-opacity="1"><g transform="translate(25.474854, 12.982919)"><g><path d="M 4.78125 0.234375 C 4.257812 0.234375 3.757812 0.171875 3.28125 0.046875 C 2.8125 -0.078125 2.390625 -0.273438 2.015625 -0.546875 C 1.648438 -0.816406 1.363281 -1.160156 1.15625 -1.578125 C 0.945312 -2.003906 0.84375 -2.507812 0.84375 -3.09375 L 0.84375 -9.09375 C 0.84375 -9.257812 0.925781 -9.34375 1.09375 -9.34375 L 2.765625 -9.34375 C 2.929688 -9.34375 3.015625 -9.257812 3.015625 -9.09375 L 3.015625 -3.609375 C 3.015625 -3.148438 3.082031 -2.78125 3.21875 -2.5 C 3.351562 -2.21875 3.550781 -2.015625 3.8125 -1.890625 C 4.082031 -1.765625 4.40625 -1.703125 4.78125 -1.703125 C 5.15625 -1.703125 5.472656 -1.765625 5.734375 -1.890625 C 6.003906 -2.015625 6.207031 -2.21875 6.34375 -2.5 C 6.476562 -2.78125 6.546875 -3.148438 6.546875 -3.609375 L 6.546875 -9.09375 C 6.546875 -9.257812 6.628906 -9.34375 6.796875 -9.34375 L 8.46875 -9.34375 C 8.632812 -9.34375 8.71875 -9.257812 8.71875 -9.09375 L 8.71875 -3.09375 C 8.71875 -2.507812 8.613281 -2.003906 8.40625 -1.578125 C 8.195312 -1.160156 7.910156 -0.816406 7.546875 -0.546875 C 7.191406 -0.273438 6.773438 -0.078125 6.296875 0.046875 C 5.816406 0.171875 5.3125 0.234375 4.78125 0.234375 Z M 4.78125 0.234375 "/></g></g></g><g fill="#ffffff" fill-opacity="1"><g transform="translate(35.033924, 12.982919)"><g><path d="M 8.0625 -2.65625 L 9.390625 -1.75 C 9.523438 -1.644531 9.550781 -1.539062 9.46875 -1.4375 C 9.050781 -0.945312 8.535156 -0.554688 7.921875 -0.265625 C 7.304688 0.0234375 6.613281 0.191406 5.84375 0.234375 L 5.75 0.546875 C 5.925781 0.566406 6.09375 0.613281 6.25 0.6875 C 6.414062 0.769531 6.546875 0.878906 6.640625 1.015625 C 6.742188 1.160156 6.796875 1.34375 6.796875 1.5625 C 6.796875 1.800781 6.722656 2.019531 6.578125 2.21875 C 6.441406 2.414062 6.222656 2.570312 5.921875 2.6875 C 5.617188 2.8125 5.226562 2.882812 4.75 2.90625 C 4.65625 2.914062 4.585938 2.894531 4.546875 2.84375 C 4.503906 2.800781 4.488281 2.738281 4.5 2.65625 L 4.609375 2.1875 C 4.648438 2.050781 4.742188 1.976562 4.890625 1.96875 C 5.097656 1.957031 5.273438 1.914062 5.421875 1.84375 C 5.566406 1.769531 5.640625 1.640625 5.640625 1.453125 C 5.640625 1.304688 5.59375 1.191406 5.5 1.109375 C 5.414062 1.023438 5.289062 0.972656 5.125 0.953125 C 5.039062 0.929688 4.984375 0.898438 4.953125 0.859375 C 4.921875 0.816406 4.910156 0.75 4.921875 0.65625 L 5.046875 0.21875 C 4.367188 0.164062 3.753906 0.015625 3.203125 -0.234375 C 2.660156 -0.484375 2.1875 -0.820312 1.78125 -1.25 C 1.382812 -1.675781 1.078125 -2.175781 0.859375 -2.75 C 0.648438 -3.332031 0.546875 -3.972656 0.546875 -4.671875 C 0.546875 -5.410156 0.664062 -6.082031 0.90625 -6.6875 C 1.144531 -7.289062 1.488281 -7.804688 1.9375 -8.234375 C 2.382812 -8.671875 2.910156 -9.003906 3.515625 -9.234375 C 4.128906 -9.460938 4.804688 -9.578125 5.546875 -9.578125 C 6.367188 -9.578125 7.113281 -9.429688 7.78125 -9.140625 C 8.445312 -8.847656 9 -8.441406 9.4375 -7.921875 C 9.539062 -7.804688 9.523438 -7.695312 9.390625 -7.59375 L 8.0625 -6.671875 C 7.9375 -6.578125 7.820312 -6.59375 7.71875 -6.71875 C 7.457031 -7.007812 7.140625 -7.234375 6.765625 -7.390625 C 6.398438 -7.554688 5.992188 -7.640625 5.546875 -7.640625 C 5.117188 -7.640625 4.726562 -7.566406 4.375 -7.421875 C 4.03125 -7.285156 3.726562 -7.085938 3.46875 -6.828125 C 3.21875 -6.578125 3.019531 -6.265625 2.875 -5.890625 C 2.738281 -5.523438 2.671875 -5.117188 2.671875 -4.671875 C 2.671875 -4.222656 2.738281 -3.816406 2.875 -3.453125 C 3.019531 -3.085938 3.21875 -2.773438 3.46875 -2.515625 C 3.726562 -2.253906 4.035156 -2.050781 4.390625 -1.90625 C 4.742188 -1.769531 5.128906 -1.703125 5.546875 -1.703125 C 5.992188 -1.703125 6.398438 -1.78125 6.765625 -1.9375 C 7.140625 -2.101562 7.457031 -2.328125 7.71875 -2.609375 C 7.820312 -2.734375 7.9375 -2.75 8.0625 -2.65625 Z M 8.0625 -2.65625 "/></g></g></g><g fill="#ffffff" fill-opacity="1"><g transform="translate(44.945681, 12.982919)"><g><path d="M 6.4375 -10.03125 C 6.257812 -10.03125 6.097656 -10.0625 5.953125 -10.125 C 5.816406 -10.195312 5.691406 -10.273438 5.578125 -10.359375 C 5.460938 -10.441406 5.351562 -10.507812 5.25 -10.5625 C 5.144531 -10.625 5.023438 -10.65625 4.890625 -10.65625 C 4.773438 -10.65625 4.6875 -10.617188 4.625 -10.546875 C 4.570312 -10.484375 4.503906 -10.390625 4.421875 -10.265625 C 4.347656 -10.128906 4.242188 -10.101562 4.109375 -10.1875 L 3.578125 -10.46875 C 3.515625 -10.5 3.472656 -10.539062 3.453125 -10.59375 C 3.429688 -10.65625 3.4375 -10.722656 3.46875 -10.796875 L 3.515625 -10.890625 C 3.648438 -11.179688 3.820312 -11.390625 4.03125 -11.515625 C 4.25 -11.648438 4.488281 -11.71875 4.75 -11.71875 C 5.082031 -11.71875 5.453125 -11.585938 5.859375 -11.328125 C 5.953125 -11.265625 6.035156 -11.210938 6.109375 -11.171875 C 6.179688 -11.128906 6.25 -11.109375 6.3125 -11.109375 C 6.4375 -11.109375 6.535156 -11.179688 6.609375 -11.328125 L 6.703125 -11.53125 C 6.734375 -11.59375 6.773438 -11.632812 6.828125 -11.65625 C 6.890625 -11.6875 6.957031 -11.6875 7.03125 -11.65625 L 7.5625 -11.40625 C 7.625 -11.375 7.664062 -11.328125 7.6875 -11.265625 C 7.71875 -11.203125 7.71875 -11.140625 7.6875 -11.078125 L 7.59375 -10.890625 C 7.445312 -10.609375 7.285156 -10.394531 7.109375 -10.25 C 6.929688 -10.101562 6.707031 -10.03125 6.4375 -10.03125 Z M 5.546875 0.234375 C 4.804688 0.234375 4.128906 0.117188 3.515625 -0.109375 C 2.910156 -0.335938 2.382812 -0.664062 1.9375 -1.09375 C 1.488281 -1.53125 1.144531 -2.050781 0.90625 -2.65625 C 0.664062 -3.257812 0.546875 -3.929688 0.546875 -4.671875 C 0.546875 -5.410156 0.664062 -6.082031 0.90625 -6.6875 C 1.144531 -7.289062 1.488281 -7.804688 1.9375 -8.234375 C 2.382812 -8.671875 2.910156 -9.003906 3.515625 -9.234375 C 4.128906 -9.460938 4.804688 -9.578125 5.546875 -9.578125 C 6.285156 -9.578125 6.960938 -9.460938 7.578125 -9.234375 C 8.191406 -9.003906 8.71875 -8.671875 9.15625 -8.234375 C 9.601562 -7.804688 9.945312 -7.289062 10.1875 -6.6875 C 10.4375 -6.082031 10.5625 -5.410156 10.5625 -4.671875 C 10.5625 -3.929688 10.4375 -3.257812 10.1875 -2.65625 C 9.945312 -2.050781 9.601562 -1.53125 9.15625 -1.09375 C 8.71875 -0.664062 8.191406 -0.335938 7.578125 -0.109375 C 6.960938 0.117188 6.285156 0.234375 5.546875 0.234375 Z M 5.546875 -1.703125 C 5.960938 -1.703125 6.347656 -1.769531 6.703125 -1.90625 C 7.054688 -2.039062 7.363281 -2.238281 7.625 -2.5 C 7.882812 -2.757812 8.082031 -3.070312 8.21875 -3.4375 C 8.363281 -3.800781 8.4375 -4.210938 8.4375 -4.671875 C 8.4375 -5.117188 8.363281 -5.523438 8.21875 -5.890625 C 8.082031 -6.265625 7.882812 -6.578125 7.625 -6.828125 C 7.363281 -7.085938 7.054688 -7.285156 6.703125 -7.421875 C 6.347656 -7.566406 5.960938 -7.640625 5.546875 -7.640625 C 5.117188 -7.640625 4.726562 -7.566406 4.375 -7.421875 C 4.03125 -7.285156 3.726562 -7.085938 3.46875 -6.828125 C 3.21875 -6.578125 3.019531 -6.265625 2.875 -5.890625 C 2.738281 -5.523438 2.671875 -5.117188 2.671875 -4.671875 C 2.671875 -4.222656 2.738281 -3.816406 2.875 -3.453125 C 3.019531 -3.085938 3.21875 -2.773438 3.46875 -2.515625 C 3.726562 -2.253906 4.035156 -2.050781 4.390625 -1.90625 C 4.742188 -1.769531 5.128906 -1.703125 5.546875 -1.703125 Z M 5.546875 -1.703125 "/></g></g></g><g fill="#ffffff" fill-opacity="1"><g transform="translate(56.061444, 12.982919)"><g><path d="M 6.625 0 L 1.171875 0 C 1.003906 0 0.921875 -0.0820312 0.921875 -0.25 L 0.921875 -9.09375 C 0.921875 -9.257812 1.003906 -9.34375 1.171875 -9.34375 L 6.625 -9.34375 C 6.789062 -9.34375 6.875 -9.257812 6.875 -9.09375 L 6.875 -7.75 C 6.875 -7.582031 6.789062 -7.5 6.625 -7.5 L 3.046875 -7.5 L 3.046875 -4.890625 L 6.140625 -4.890625 C 6.304688 -4.890625 6.390625 -4.804688 6.390625 -4.640625 L 6.390625 -3.40625 C 6.390625 -3.238281 6.304688 -3.15625 6.140625 -3.15625 L 3.046875 -3.15625 L 3.046875 -1.84375 L 6.625 -1.84375 C 6.789062 -1.84375 6.875 -1.757812 6.875 -1.59375 L 6.875 -0.25 C 6.875 -0.0820312 6.789062 0 6.625 0 Z M 6.625 0 "/></g></g></g><g fill="#ffffff" fill-opacity="1"><g transform="translate(63.583441, 12.982919)"><g><path d="M 3.734375 0.234375 C 3.273438 0.234375 2.800781 0.191406 2.3125 0.109375 C 1.832031 0.0351562 1.304688 -0.0976562 0.734375 -0.296875 C 0.578125 -0.359375 0.53125 -0.460938 0.59375 -0.609375 L 1.046875 -1.953125 C 1.097656 -2.097656 1.207031 -2.144531 1.375 -2.09375 C 1.789062 -1.925781 2.203125 -1.796875 2.609375 -1.703125 C 3.023438 -1.617188 3.394531 -1.578125 3.71875 -1.578125 C 4.101562 -1.578125 4.410156 -1.644531 4.640625 -1.78125 C 4.878906 -1.914062 5 -2.125 5 -2.40625 C 5 -2.59375 4.9375 -2.753906 4.8125 -2.890625 C 4.6875 -3.035156 4.515625 -3.171875 4.296875 -3.296875 C 4.085938 -3.429688 3.847656 -3.5625 3.578125 -3.6875 C 3.304688 -3.820312 3.03125 -3.960938 2.75 -4.109375 C 2.476562 -4.253906 2.210938 -4.410156 1.953125 -4.578125 C 1.703125 -4.753906 1.476562 -4.945312 1.28125 -5.15625 C 1.082031 -5.375 0.925781 -5.625 0.8125 -5.90625 C 0.707031 -6.195312 0.65625 -6.523438 0.65625 -6.890625 C 0.65625 -7.367188 0.742188 -7.78125 0.921875 -8.125 C 1.097656 -8.46875 1.335938 -8.742188 1.640625 -8.953125 C 1.941406 -9.171875 2.285156 -9.328125 2.671875 -9.421875 C 3.066406 -9.523438 3.46875 -9.578125 3.875 -9.578125 C 4.125 -9.578125 4.390625 -9.554688 4.671875 -9.515625 C 4.960938 -9.484375 5.253906 -9.429688 5.546875 -9.359375 C 5.835938 -9.296875 6.125 -9.210938 6.40625 -9.109375 C 6.5625 -9.054688 6.613281 -8.953125 6.5625 -8.796875 L 6.171875 -7.53125 C 6.109375 -7.375 6 -7.320312 5.84375 -7.375 C 5.53125 -7.5 5.207031 -7.59375 4.875 -7.65625 C 4.539062 -7.726562 4.226562 -7.765625 3.9375 -7.765625 C 3.726562 -7.765625 3.535156 -7.738281 3.359375 -7.6875 C 3.191406 -7.644531 3.054688 -7.570312 2.953125 -7.46875 C 2.859375 -7.363281 2.8125 -7.222656 2.8125 -7.046875 C 2.8125 -6.867188 2.859375 -6.710938 2.953125 -6.578125 C 3.054688 -6.453125 3.195312 -6.328125 3.375 -6.203125 C 3.5625 -6.085938 3.773438 -5.972656 4.015625 -5.859375 C 4.253906 -5.742188 4.507812 -5.625 4.78125 -5.5 C 5.0625 -5.363281 5.34375 -5.207031 5.625 -5.03125 C 5.90625 -4.851562 6.160156 -4.648438 6.390625 -4.421875 C 6.628906 -4.203125 6.816406 -3.929688 6.953125 -3.609375 C 7.097656 -3.296875 7.171875 -2.929688 7.171875 -2.515625 C 7.171875 -2.109375 7.101562 -1.75 6.96875 -1.4375 C 6.84375 -1.132812 6.664062 -0.875 6.4375 -0.65625 C 6.21875 -0.445312 5.960938 -0.273438 5.671875 -0.140625 C 5.378906 -0.00390625 5.066406 0.0859375 4.734375 0.140625 C 4.410156 0.203125 4.078125 0.234375 3.734375 0.234375 Z M 3.734375 0.234375 "/></g></g></g><g fill="#ffffff" fill-opacity="1"><g transform="translate(71.257452, 12.982919)"><g/></g></g><g fill="#ffffff" fill-opacity="1"><g transform="translate(75.124862, 12.982919)"><g><path d="M 6.625 0 L 1.171875 0 C 1.003906 0 0.921875 -0.0820312 0.921875 -0.25 L 0.921875 -9.09375 C 0.921875 -9.257812 1.003906 -9.34375 1.171875 -9.34375 L 6.625 -9.34375 C 6.789062 -9.34375 6.875 -9.257812 6.875 -9.09375 L 6.875 -7.75 C 6.875 -7.582031 6.789062 -7.5 6.625 -7.5 L 3.046875 -7.5 L 3.046875 -4.890625 L 6.140625 -4.890625 C 6.304688 -4.890625 6.390625 -4.804688 6.390625 -4.640625 L 6.390625 -3.40625 C 6.390625 -3.238281 6.304688 -3.15625 6.140625 -3.15625 L 3.046875 -3.15625 L 3.046875 -1.84375 L 6.625 -1.84375 C 6.789062 -1.84375 6.875 -1.757812 6.875 -1.59375 L 6.875 -0.25 C 6.875 -0.0820312 6.789062 0 6.625 0 Z M 6.625 0 "/></g></g></g><g fill="#ffffff" fill-opacity="1"><g transform="translate(82.646859, 12.982919)"><g><path d="M 2.765625 0 L 1.1875 0 C 1.019531 0 0.9375 -0.0820312 0.9375 -0.25 L 0.9375 -9.140625 C 0.9375 -9.285156 0.96875 -9.394531 1.03125 -9.46875 C 1.09375 -9.550781 1.171875 -9.582031 1.265625 -9.5625 C 1.359375 -9.539062 1.453125 -9.46875 1.546875 -9.34375 L 5.546875 -4.171875 L 9.578125 -9.34375 C 9.671875 -9.457031 9.765625 -9.523438 9.859375 -9.546875 C 9.953125 -9.566406 10.023438 -9.539062 10.078125 -9.46875 C 10.140625 -9.394531 10.171875 -9.285156 10.171875 -9.140625 L 10.171875 -0.25 C 10.171875 -0.0820312 10.085938 0 9.921875 0 L 8.34375 0 C 8.175781 0 8.09375 -0.0820312 8.09375 -0.25 L 8.09375 -4.484375 L 5.71875 -1.546875 C 5.601562 -1.398438 5.488281 -1.398438 5.375 -1.546875 L 3.015625 -4.46875 L 3.015625 -0.25 C 3.015625 -0.0820312 2.929688 0 2.765625 0 Z M 2.765625 0 "/></g></g></g><g fill="#ffffff" fill-opacity="1"><g transform="translate(93.762622, 12.982919)"><g/></g></g><g fill="#ffffff" fill-opacity="1"><g transform="translate(97.630031, 12.982919)"><g><path d="M 4.3125 0 L 2.65625 0 C 2.488281 0 2.40625 -0.0820312 2.40625 -0.25 L 2.40625 -7.5 L 0.46875 -7.5 C 0.300781 -7.5 0.21875 -7.582031 0.21875 -7.75 L 0.21875 -9.09375 C 0.21875 -9.257812 0.300781 -9.34375 0.46875 -9.34375 L 6.5 -9.34375 C 6.664062 -9.34375 6.75 -9.257812 6.75 -9.09375 L 6.75 -7.75 C 6.75 -7.582031 6.664062 -7.5 6.5 -7.5 L 4.546875 -7.5 L 4.546875 -0.25 C 4.546875 -0.0820312 4.46875 0 4.3125 0 Z M 4.3125 0 "/></g></g></g><g fill="#ffffff" fill-opacity="1"><g transform="translate(104.610828, 12.982919)"><g><path d="M 6.625 0 L 1.171875 0 C 1.003906 0 0.921875 -0.0820312 0.921875 -0.25 L 0.921875 -9.09375 C 0.921875 -9.257812 1.003906 -9.34375 1.171875 -9.34375 L 6.625 -9.34375 C 6.789062 -9.34375 6.875 -9.257812 6.875 -9.09375 L 6.875 -7.75 C 6.875 -7.582031 6.789062 -7.5 6.625 -7.5 L 3.046875 -7.5 L 3.046875 -4.890625 L 6.140625 -4.890625 C 6.304688 -4.890625 6.390625 -4.804688 6.390625 -4.640625 L 6.390625 -3.40625 C 6.390625 -3.238281 6.304688 -3.15625 6.140625 -3.15625 L 3.046875 -3.15625 L 3.046875 -1.84375 L 6.625 -1.84375 C 6.789062 -1.84375 6.875 -1.757812 6.875 -1.59375 L 6.875 -0.25 C 6.875 -0.0820312 6.789062 0 6.625 0 Z M 6.625 0 "/></g></g></g><g fill="#ffffff" fill-opacity="1"><g transform="translate(112.132825, 12.982919)"><g><path d="M 5.546875 0.234375 C 4.804688 0.234375 4.128906 0.117188 3.515625 -0.109375 C 2.910156 -0.335938 2.382812 -0.664062 1.9375 -1.09375 C 1.488281 -1.53125 1.144531 -2.050781 0.90625 -2.65625 C 0.664062 -3.257812 0.546875 -3.929688 0.546875 -4.671875 C 0.546875 -5.410156 0.664062 -6.082031 0.90625 -6.6875 C 1.144531 -7.289062 1.488281 -7.804688 1.9375 -8.234375 C 2.382812 -8.671875 2.910156 -9.003906 3.515625 -9.234375 C 4.128906 -9.460938 4.804688 -9.578125 5.546875 -9.578125 C 6.367188 -9.578125 7.113281 -9.429688 7.78125 -9.140625 C 8.445312 -8.847656 9 -8.441406 9.4375 -7.921875 C 9.539062 -7.804688 9.523438 -7.695312 9.390625 -7.59375 L 8.0625 -6.671875 C 7.9375 -6.578125 7.820312 -6.59375 7.71875 -6.71875 C 7.457031 -7.007812 7.140625 -7.234375 6.765625 -7.390625 C 6.398438 -7.554688 5.992188 -7.640625 5.546875 -7.640625 C 5.117188 -7.640625 4.726562 -7.566406 4.375 -7.421875 C 4.03125 -7.285156 3.726562 -7.085938 3.46875 -6.828125 C 3.21875 -6.578125 3.019531 -6.265625 2.875 -5.890625 C 2.738281 -5.523438 2.671875 -5.117188 2.671875 -4.671875 C 2.671875 -4.222656 2.738281 -3.816406 2.875 -3.453125 C 3.019531 -3.085938 3.21875 -2.773438 3.46875 -2.515625 C 3.726562 -2.253906 4.035156 -2.050781 4.390625 -1.90625 C 4.742188 -1.769531 5.128906 -1.703125 5.546875 -1.703125 C 5.992188 -1.703125 6.398438 -1.78125 6.765625 -1.9375 C 7.140625 -2.101562 7.457031 -2.328125 7.71875 -2.609375 C 7.820312 -2.734375 7.9375 -2.75 8.0625 -2.65625 L 9.390625 -1.75 C 9.523438 -1.644531 9.550781 -1.539062 9.46875 -1.4375 C 9.03125 -0.914062 8.472656 -0.503906 7.796875 -0.203125 C 7.128906 0.0859375 6.378906 0.234375 5.546875 0.234375 Z M 5.546875 0.234375 "/></g></g></g><g fill="#ffffff" fill-opacity="1"><g transform="translate(122.044582, 12.982919)"><g><path d="M 2.75 0 L 1.1875 0 C 1.019531 0 0.9375 -0.0820312 0.9375 -0.25 L 0.9375 -9.125 C 0.9375 -9.34375 0.992188 -9.476562 1.109375 -9.53125 C 1.234375 -9.59375 1.378906 -9.546875 1.546875 -9.390625 L 6.828125 -4.125 L 6.828125 -9.09375 C 6.828125 -9.257812 6.910156 -9.34375 7.078125 -9.34375 L 8.640625 -9.34375 C 8.804688 -9.34375 8.890625 -9.257812 8.890625 -9.09375 L 8.890625 -0.21875 C 8.890625 -0.0703125 8.859375 0.0351562 8.796875 0.109375 C 8.734375 0.179688 8.648438 0.207031 8.546875 0.1875 C 8.453125 0.175781 8.34375 0.113281 8.21875 0 L 2.984375 -5.328125 L 2.984375 -0.25 C 2.984375 -0.0820312 2.90625 0 2.75 0 Z M 2.75 0 "/></g></g></g><g fill="#ffffff" fill-opacity="1"><g transform="translate(131.865134, 12.982919)"><g><path d="M 5.546875 0.234375 C 4.804688 0.234375 4.128906 0.117188 3.515625 -0.109375 C 2.910156 -0.335938 2.382812 -0.664062 1.9375 -1.09375 C 1.488281 -1.53125 1.144531 -2.050781 0.90625 -2.65625 C 0.664062 -3.257812 0.546875 -3.929688 0.546875 -4.671875 C 0.546875 -5.410156 0.664062 -6.082031 0.90625 -6.6875 C 1.144531 -7.289062 1.488281 -7.804688 1.9375 -8.234375 C 2.382812 -8.671875 2.910156 -9.003906 3.515625 -9.234375 C 4.128906 -9.460938 4.804688 -9.578125 5.546875 -9.578125 C 6.285156 -9.578125 6.960938 -9.460938 7.578125 -9.234375 C 8.191406 -9.003906 8.71875 -8.671875 9.15625 -8.234375 C 9.601562 -7.804688 9.945312 -7.289062 10.1875 -6.6875 C 10.4375 -6.082031 10.5625 -5.410156 10.5625 -4.671875 C 10.5625 -3.929688 10.4375 -3.257812 10.1875 -2.65625 C 9.945312 -2.050781 9.601562 -1.53125 9.15625 -1.09375 C 8.71875 -0.664062 8.191406 -0.335938 7.578125 -0.109375 C 6.960938 0.117188 6.285156 0.234375 5.546875 0.234375 Z M 5.546875 -1.703125 C 5.960938 -1.703125 6.347656 -1.769531 6.703125 -1.90625 C 7.054688 -2.039062 7.363281 -2.238281 7.625 -2.5 C 7.882812 -2.757812 8.082031 -3.070312 8.21875 -3.4375 C 8.363281 -3.800781 8.4375 -4.210938 8.4375 -4.671875 C 8.4375 -5.117188 8.363281 -5.523438 8.21875 -5.890625 C 8.082031 -6.265625 7.882812 -6.578125 7.625 -6.828125 C 7.363281 -7.085938 7.054688 -7.285156 6.703125 -7.421875 C 6.347656 -7.566406 5.960938 -7.640625 5.546875 -7.640625 C 5.117188 -7.640625 4.726562 -7.566406 4.375 -7.421875 C 4.03125 -7.285156 3.726562 -7.085938 3.46875 -6.828125 C 3.21875 -6.578125 3.019531 -6.265625 2.875 -5.890625 C 2.738281 -5.523438 2.671875 -5.117188 2.671875 -4.671875 C 2.671875 -4.222656 2.738281 -3.816406 2.875 -3.453125 C 3.019531 -3.085938 3.21875 -2.773438 3.46875 -2.515625 C 3.726562 -2.253906 4.035156 -2.050781 4.390625 -1.90625 C 4.742188 -1.769531 5.128906 -1.703125 5.546875 -1.703125 Z M 5.546875 -1.703125 "/></g></g></g><g fill="#ffffff" fill-opacity="1"><g transform="translate(142.980897, 12.982919)"><g><path d="M 5.84375 0 L 1.171875 0 C 1.003906 0 0.921875 -0.0820312 0.921875 -0.25 L 0.921875 -9.09375 C 0.921875 -9.257812 1.003906 -9.34375 1.171875 -9.34375 L 2.796875 -9.34375 C 2.960938 -9.34375 3.046875 -9.257812 3.046875 -9.09375 L 3.046875 -1.84375 L 5.84375 -1.84375 C 6.007812 -1.84375 6.09375 -1.757812 6.09375 -1.59375 L 6.09375 -0.25 C 6.09375 -0.0820312 6.007812 0 5.84375 0 Z M 5.84375 0 "/></g></g></g><g fill="#ffffff" fill-opacity="1"><g transform="translate(149.31105, 12.982919)"><g><path d="M 5.546875 0.234375 C 4.804688 0.234375 4.128906 0.117188 3.515625 -0.109375 C 2.910156 -0.335938 2.382812 -0.664062 1.9375 -1.09375 C 1.488281 -1.53125 1.144531 -2.050781 0.90625 -2.65625 C 0.664062 -3.257812 0.546875 -3.929688 0.546875 -4.671875 C 0.546875 -5.410156 0.664062 -6.082031 0.90625 -6.6875 C 1.144531 -7.289062 1.488281 -7.804688 1.9375 -8.234375 C 2.382812 -8.671875 2.910156 -9.003906 3.515625 -9.234375 C 4.128906 -9.460938 4.804688 -9.578125 5.546875 -9.578125 C 6.285156 -9.578125 6.960938 -9.460938 7.578125 -9.234375 C 8.191406 -9.003906 8.71875 -8.671875 9.15625 -8.234375 C 9.601562 -7.804688 9.945312 -7.289062 10.1875 -6.6875 C 10.4375 -6.082031 10.5625 -5.410156 10.5625 -4.671875 C 10.5625 -3.929688 10.4375 -3.257812 10.1875 -2.65625 C 9.945312 -2.050781 9.601562 -1.53125 9.15625 -1.09375 C 8.71875 -0.664062 8.191406 -0.335938 7.578125 -0.109375 C 6.960938 0.117188 6.285156 0.234375 5.546875 0.234375 Z M 5.546875 -1.703125 C 5.960938 -1.703125 6.347656 -1.769531 6.703125 -1.90625 C 7.054688 -2.039062 7.363281 -2.238281 7.625 -2.5 C 7.882812 -2.757812 8.082031 -3.070312 8.21875 -3.4375 C 8.363281 -3.800781 8.4375 -4.210938 8.4375 -4.671875 C 8.4375 -5.117188 8.363281 -5.523438 8.21875 -5.890625 C 8.082031 -6.265625 7.882812 -6.578125 7.625 -6.828125 C 7.363281 -7.085938 7.054688 -7.285156 6.703125 -7.421875 C 6.347656 -7.566406 5.960938 -7.640625 5.546875 -7.640625 C 5.117188 -7.640625 4.726562 -7.566406 4.375 -7.421875 C 4.03125 -7.285156 3.726562 -7.085938 3.46875 -6.828125 C 3.21875 -6.578125 3.019531 -6.265625 2.875 -5.890625 C 2.738281 -5.523438 2.671875 -5.117188 2.671875 -4.671875 C 2.671875 -4.222656 2.738281 -3.816406 2.875 -3.453125 C 3.019531 -3.085938 3.21875 -2.773438 3.46875 -2.515625 C 3.726562 -2.253906 4.035156 -2.050781 4.390625 -1.90625 C 4.742188 -1.769531 5.128906 -1.703125 5.546875 -1.703125 Z M 5.546875 -1.703125 "/></g></g></g><g fill="#ffffff" fill-opacity="1"><g transform="translate(160.426813, 12.982919)"><g><path d="M 5.546875 0.234375 C 4.804688 0.234375 4.128906 0.117188 3.515625 -0.109375 C 2.910156 -0.335938 2.382812 -0.664062 1.9375 -1.09375 C 1.488281 -1.53125 1.144531 -2.050781 0.90625 -2.65625 C 0.664062 -3.257812 0.546875 -3.929688 0.546875 -4.671875 C 0.546875 -5.410156 0.664062 -6.082031 0.90625 -6.6875 C 1.144531 -7.289062 1.488281 -7.804688 1.9375 -8.234375 C 2.382812 -8.671875 2.910156 -9.003906 3.515625 -9.234375 C 4.128906 -9.460938 4.804688 -9.578125 5.546875 -9.578125 C 6.367188 -9.578125 7.113281 -9.429688 7.78125 -9.140625 C 8.445312 -8.847656 9 -8.441406 9.4375 -7.921875 C 9.539062 -7.796875 9.523438 -7.6875 9.390625 -7.59375 L 8.0625 -6.671875 C 7.9375 -6.585938 7.820312 -6.601562 7.71875 -6.71875 C 7.457031 -7.007812 7.140625 -7.234375 6.765625 -7.390625 C 6.398438 -7.554688 5.992188 -7.640625 5.546875 -7.640625 C 5.117188 -7.640625 4.726562 -7.566406 4.375 -7.421875 C 4.03125 -7.285156 3.726562 -7.085938 3.46875 -6.828125 C 3.21875 -6.578125 3.019531 -6.265625 2.875 -5.890625 C 2.738281 -5.523438 2.671875 -5.117188 2.671875 -4.671875 C 2.671875 -4.203125 2.738281 -3.78125 2.875 -3.40625 C 3.019531 -3.03125 3.21875 -2.707031 3.46875 -2.4375 C 3.726562 -2.164062 4.035156 -1.957031 4.390625 -1.8125 C 4.742188 -1.675781 5.128906 -1.609375 5.546875 -1.609375 C 5.984375 -1.609375 6.378906 -1.679688 6.734375 -1.828125 C 7.085938 -1.984375 7.390625 -2.195312 7.640625 -2.46875 L 7.640625 -3.15625 L 5.8125 -3.15625 C 5.644531 -3.15625 5.5625 -3.238281 5.5625 -3.40625 L 5.5625 -4.640625 C 5.5625 -4.804688 5.644531 -4.890625 5.8125 -4.890625 L 9.34375 -4.890625 C 9.507812 -4.890625 9.59375 -4.804688 9.59375 -4.640625 L 9.59375 -1.78125 C 9.59375 -1.664062 9.5625 -1.570312 9.5 -1.5 C 9.070312 -0.945312 8.515625 -0.519531 7.828125 -0.21875 C 7.148438 0.0820312 6.390625 0.234375 5.546875 0.234375 Z M 5.546875 0.234375 "/></g></g></g><g fill="#ffffff" fill-opacity="1"><g transform="translate(170.691259, 12.982919)"><g><path d="M 2.796875 0 L 1.171875 0 C 1.003906 0 0.921875 -0.0820312 0.921875 -0.25 L 0.921875 -9.09375 C 0.921875 -9.257812 1.003906 -9.34375 1.171875 -9.34375 L 2.796875 -9.34375 C 2.960938 -9.34375 3.046875 -9.257812 3.046875 -9.09375 L 3.046875 -0.25 C 3.046875 -0.0820312 2.960938 0 2.796875 0 Z M 2.796875 0 "/></g></g></g><g fill="#ffffff" fill-opacity="1"><g transform="translate(174.662049, 12.982919)"><g><path d="M 4.96875 -9.34375 L 9.140625 -0.296875 C 9.171875 -0.210938 9.171875 -0.140625 9.140625 -0.078125 C 9.109375 -0.0234375 9.046875 0 8.953125 0 L 7.15625 0 C 7.007812 0 6.914062 -0.0625 6.875 -0.1875 L 6.453125 -1.234375 L 2.875 -1.234375 L 2.453125 -0.1875 C 2.410156 -0.0625 2.316406 0 2.171875 0 L 0.375 0 C 0.289062 0 0.226562 -0.0234375 0.1875 -0.078125 C 0.15625 -0.140625 0.15625 -0.210938 0.1875 -0.296875 L 4.359375 -9.34375 C 4.441406 -9.519531 4.539062 -9.609375 4.65625 -9.609375 C 4.78125 -9.609375 4.882812 -9.519531 4.96875 -9.34375 Z M 4.65625 -5.734375 L 3.515625 -2.859375 L 5.8125 -2.859375 Z M 4.65625 -5.734375 "/></g></g></g></g></g></svg>