<svg xmlns="http://www.w3.org/2000/svg" xmlns:xlink="http://www.w3.org/1999/xlink" width="833" zoomAndPan="magnify" viewBox="0 0 624.75 135.000003" height="180" preserveAspectRatio="xMidYMid meet" version="1.0"><defs><g/></defs><g fill="#004aad" fill-opacity="1"><g transform="translate(32.55805, 103.704242)"><g><path d="M 75.523438 -80.847656 L 75.523438 -97.929688 C 75.523438 -98.425781 75.027344 -99.046875 74.160156 -99.046875 L 58.066406 -99.046875 C 33.429688 -99.046875 0 -91.863281 0 -49.523438 C 0 -5.570312 33.800781 0 58.066406 0 L 74.160156 0 C 75.027344 0 75.523438 -0.617188 75.523438 -1.113281 L 75.523438 -61.78125 L 37.511719 -61.78125 L 37.511719 -42.835938 L 56.578125 -42.835938 L 56.578125 -18.074219 C 35.039062 -16.960938 19.066406 -26 19.066406 -49.523438 C 19.066406 -80.101562 44.570312 -81.339844 56.578125 -80.847656 Z M 75.523438 -80.847656 "/></g></g></g><g fill="#000000" fill-opacity="1"><g transform="translate(111.931747, 103.704242)"><g><path d="M 57.816406 -58.683594 L 18.941406 -58.683594 L 18.941406 -81.09375 L 47.046875 -81.09375 L 47.046875 -99.046875 L 1.363281 -99.046875 C 0.617188 -99.046875 0 -98.425781 0 -97.929688 L 0 -1.113281 C 0 -0.617188 0.617188 0 1.363281 0 L 18.941406 0 L 18.941406 -40.734375 L 57.816406 -40.734375 C 58.5625 -40.734375 59.179688 -41.351562 59.179688 -41.847656 L 59.179688 -57.570312 C 59.179688 -58.1875 58.5625 -58.683594 57.816406 -58.683594 Z M 57.816406 -58.683594 "/></g></g></g><g fill="#000000" fill-opacity="1"><g transform="translate(174.077572, 103.704242)"><g><path d="M 47.046875 -18.449219 L 18.941406 -18.449219 L 18.941406 -40.734375 L 57.816406 -40.734375 C 58.5625 -40.734375 59.179688 -41.351562 59.179688 -41.847656 L 59.179688 -57.570312 C 59.179688 -58.1875 58.5625 -58.683594 57.816406 -58.683594 L 18.941406 -58.683594 L 18.941406 -81.09375 L 47.046875 -81.09375 L 47.046875 -99.046875 L 1.363281 -99.046875 C 0.617188 -99.046875 0 -98.425781 0 -97.929688 L 0 -1.113281 C 0 -0.617188 0.617188 0 1.363281 0 L 47.046875 0 Z M 47.046875 -18.449219 "/></g></g></g><g fill="#000000" fill-opacity="1"><g transform="translate(236.223397, 103.704242)"><g><path d="M 67.597656 -1.609375 C 61.410156 -15.351562 54.722656 -28.972656 48.53125 -42.960938 C 58.4375 -46.550781 66.730469 -54.476562 66.730469 -69.578125 C 66.730469 -98.796875 38.875 -99.046875 33.304688 -99.046875 L 1.238281 -99.046875 C 0.617188 -99.046875 0 -98.425781 0 -97.929688 L 0 -81.09375 L 33.304688 -81.09375 C 36.277344 -81.09375 47.914062 -80.476562 47.914062 -69.578125 C 47.914062 -58.683594 37.390625 -58.1875 33.304688 -58.1875 L 0 -58.1875 L 0 -1.113281 C 0 -0.617188 0.617188 0 1.238281 0 L 17.457031 0 C 18.199219 0 18.820312 -0.617188 18.820312 -1.113281 L 18.820312 -39.988281 L 29.464844 -39.988281 L 47.542969 -0.742188 C 47.664062 -0.371094 48.410156 0 48.78125 0 L 66.484375 0 C 67.476562 0 67.96875 -0.742188 67.597656 -1.609375 Z M 67.597656 -1.609375 "/></g></g></g><g fill="#004aad" fill-opacity="1"><g transform="translate(304.407166, 103.708507)"><g><path d="M 20.421875 -63.121094 L 20.421875 -1.113281 C 20.421875 -0.617188 20.917969 0 21.78125 0 L 37.75 0 C 38.617188 0 39.234375 -0.617188 39.234375 -1.113281 L 39.234375 -63.121094 Z M 1.363281 -82.058594 L 58.171875 -82.058594 C 59.035156 -82.058594 59.53125 -82.550781 59.53125 -83.171875 L 59.53125 -97.898438 C 59.53125 -98.394531 59.035156 -99.015625 58.171875 -99.015625 L 1.363281 -99.015625 C 0.617188 -99.015625 0 -98.394531 0 -97.898438 L 0 -83.171875 C 0 -82.550781 0.617188 -82.058594 1.363281 -82.058594 Z M 1.363281 -82.058594 "/></g></g></g><g fill="#000000" fill-opacity="1"><g transform="translate(366.919417, 103.708507)"><g><path d="M 47.03125 -18.441406 L 18.9375 -18.441406 L 18.9375 -40.71875 L 57.800781 -40.71875 C 58.542969 -40.71875 59.160156 -41.339844 59.160156 -41.832031 L 59.160156 -57.550781 C 59.160156 -58.171875 58.542969 -58.664062 57.800781 -58.664062 L 18.9375 -58.664062 L 18.9375 -81.066406 L 47.03125 -81.066406 L 47.03125 -99.015625 L 1.363281 -99.015625 C 0.617188 -99.015625 0 -98.394531 0 -97.898438 L 0 -1.113281 C 0 -0.617188 0.617188 0 1.363281 0 L 47.03125 0 Z M 47.03125 -18.441406 "/></g></g></g><g fill="#000000" fill-opacity="1"><g transform="translate(429.044344, 103.708507)"><g><path d="M 56.5625 -18.195312 C 44.554688 -17.699219 19.058594 -18.9375 19.058594 -49.507812 C 19.058594 -73.023438 35.027344 -82.058594 56.5625 -80.945312 L 56.5625 -59.035156 L 75.496094 -59.035156 L 75.496094 -97.898438 C 75.496094 -98.394531 75.003906 -99.015625 74.136719 -99.015625 L 58.046875 -99.015625 C 33.789062 -99.015625 0 -93.445312 0 -49.507812 C 0 -7.179688 33.417969 0 58.046875 0 L 74.136719 0 C 75.003906 0 75.496094 -0.617188 75.496094 -1.113281 L 75.496094 -18.195312 Z M 56.5625 -18.195312 "/></g></g></g><g fill="#000000" fill-opacity="1"><g transform="translate(508.371203, 103.708507)"><g><path d="M 18.9375 -56.066406 L 18.9375 -97.898438 C 18.9375 -98.394531 18.441406 -99.015625 17.574219 -99.015625 L 1.363281 -99.015625 C 0.617188 -99.015625 0 -98.394531 0 -97.898438 L 0 -56.066406 Z M 74.011719 -99.015625 L 57.800781 -99.015625 C 57.058594 -99.015625 56.4375 -98.394531 56.4375 -97.898438 L 56.4375 -37.007812 L 18.9375 -37.007812 L 18.9375 -37.128906 L 0 -37.128906 L 0 -1.113281 C 0 -0.617188 0.617188 0 1.363281 0 L 17.574219 0 C 18.441406 0 18.9375 -0.617188 18.9375 -1.113281 L 18.9375 -18.566406 L 56.4375 -18.566406 L 56.4375 -1.113281 C 56.4375 -0.617188 57.058594 0 57.800781 0 L 74.011719 0 C 74.878906 0 75.375 -0.617188 75.375 -1.113281 L 75.375 -97.898438 C 75.375 -98.394531 74.878906 -99.015625 74.011719 -99.015625 Z M 74.011719 -99.015625 "/></g></g></g><g fill="#000000" fill-opacity="1"><g transform="translate(182.734294, 126.359671)"><g><path d="M 5.8125 0.367188 C 8.472656 0.367188 11.160156 -0.757812 11.160156 -3.910156 C 11.160156 -6.539062 9.210938 -7.6875 7.441406 -8.554688 C 5.746094 -9.371094 4.371094 -9.902344 4.371094 -10.960938 C 4.371094 -11.792969 5.140625 -12.085938 6.132812 -12.085938 C 7.03125 -12.085938 8.128906 -11.859375 9.105469 -11.480469 C 9.34375 -11.394531 9.511719 -11.492188 9.597656 -11.71875 L 10.210938 -13.695312 C 10.296875 -13.933594 10.222656 -14.101562 9.976562 -14.1875 C 8.671875 -14.632812 7.175781 -14.90625 6.039062 -14.90625 C 3.453125 -14.90625 1.011719 -13.722656 1.011719 -10.722656 C 1.011719 -8.433594 2.566406 -7.296875 4.289062 -6.390625 C 6.039062 -5.472656 7.789062 -4.875 7.789062 -3.757812 C 7.789062 -2.867188 6.984375 -2.460938 5.792969 -2.460938 C 4.769531 -2.460938 3.445312 -2.734375 2.128906 -3.257812 C 1.894531 -3.339844 1.714844 -3.285156 1.628906 -3.039062 L 0.917969 -0.957031 C 0.824219 -0.710938 0.910156 -0.550781 1.15625 -0.453125 C 2.933594 0.140625 4.402344 0.367188 5.8125 0.367188 Z M 5.8125 0.367188 "/></g></g></g><g fill="#000000" fill-opacity="1"><g transform="translate(194.676619, 126.359671)"><g><path d="M 8.632812 0.367188 C 13.230469 0.367188 16.441406 -2.660156 16.441406 -7.269531 C 16.441406 -11.878906 13.230469 -14.90625 8.632812 -14.90625 C 4.042969 -14.90625 0.84375 -11.878906 0.84375 -7.269531 C 0.84375 -2.660156 4.042969 0.367188 8.632812 0.367188 Z M 8.632812 -2.648438 C 6.019531 -2.648438 4.15625 -4.457031 4.15625 -7.269531 C 4.15625 -10.089844 6.011719 -11.886719 8.632812 -11.886719 C 11.253906 -11.886719 13.128906 -10.089844 13.128906 -7.269531 C 13.128906 -4.449219 11.253906 -2.648438 8.632812 -2.648438 Z M 8.632812 -2.648438 "/></g></g></g><g fill="#000000" fill-opacity="1"><g transform="translate(211.97501, 126.359671)"><g><path d="M 9.105469 0 C 9.359375 0 9.492188 -0.132812 9.492188 -0.386719 L 9.492188 -2.46875 C 9.492188 -2.714844 9.359375 -2.859375 9.105469 -2.859375 L 4.742188 -2.859375 L 4.742188 -14.148438 C 4.742188 -14.40625 4.609375 -14.539062 4.355469 -14.539062 L 1.828125 -14.539062 C 1.570312 -14.539062 1.4375 -14.40625 1.4375 -14.148438 L 1.4375 -0.386719 C 1.4375 -0.132812 1.570312 0 1.828125 0 Z M 9.105469 0 "/></g></g></g><g fill="#000000" fill-opacity="1"><g transform="translate(221.826019, 126.359671)"><g><path d="M 7.441406 0.367188 C 10.78125 0.367188 13.574219 -1.144531 13.574219 -4.828125 L 13.574219 -14.148438 C 13.574219 -14.40625 13.429688 -14.539062 13.183594 -14.539062 L 10.574219 -14.539062 C 10.316406 -14.539062 10.183594 -14.40625 10.183594 -14.148438 L 10.183594 -5.613281 C 10.183594 -3.472656 9.199219 -2.640625 7.441406 -2.640625 C 5.699219 -2.640625 4.695312 -3.472656 4.695312 -5.613281 L 4.695312 -14.148438 C 4.695312 -14.40625 4.5625 -14.539062 4.304688 -14.539062 L 1.695312 -14.539062 C 1.449219 -14.539062 1.304688 -14.40625 1.304688 -14.148438 L 1.304688 -4.828125 C 1.304688 -1.144531 4.175781 0.367188 7.441406 0.367188 Z M 7.441406 0.367188 "/></g></g></g><g fill="#000000" fill-opacity="1"><g transform="translate(236.701878, 126.359671)"><g><path d="M 12.542969 -4.144531 C 12.34375 -4.289062 12.171875 -4.257812 12.011719 -4.070312 C 11.214844 -3.191406 10.03125 -2.648438 8.632812 -2.648438 C 6.019531 -2.648438 4.15625 -4.457031 4.15625 -7.269531 C 4.15625 -10.089844 6.019531 -11.886719 8.621094 -11.886719 C 10.03125 -11.886719 11.207031 -11.347656 12.011719 -10.46875 C 12.171875 -10.277344 12.351562 -10.25 12.542969 -10.394531 L 14.625 -11.8125 C 14.820312 -11.964844 14.859375 -12.144531 14.691406 -12.332031 C 13.308594 -13.941406 11.1875 -14.90625 8.621094 -14.90625 C 4.058594 -14.90625 0.84375 -11.886719 0.84375 -7.269531 C 0.84375 -2.914062 3.691406 0.0195312 7.847656 0.339844 L 7.667969 1.03125 C 7.609375 1.296875 7.722656 1.417969 7.988281 1.476562 C 8.5 1.5625 8.773438 1.796875 8.773438 2.253906 C 8.773438 2.828125 8.253906 3.019531 7.609375 3.066406 C 7.375 3.085938 7.242188 3.199219 7.183594 3.417969 L 7.011719 4.125 C 6.957031 4.390625 7.089844 4.550781 7.382812 4.535156 C 9.636719 4.4375 10.582031 3.558594 10.582031 2.421875 C 10.582031 1.417969 9.785156 0.964844 8.953125 0.851562 L 9.085938 0.359375 C 11.480469 0.246094 13.449219 -0.710938 14.726562 -2.234375 C 14.878906 -2.414062 14.832031 -2.574219 14.625 -2.734375 Z M 12.542969 -4.144531 "/></g></g></g><g fill="#000000" fill-opacity="1"><g transform="translate(252.126593, 126.359671)"><g><path d="M 10.023438 -15.609375 C 10.855469 -15.609375 11.386719 -16.070312 11.8125 -16.953125 L 11.953125 -17.234375 C 12.058594 -17.453125 11.972656 -17.652344 11.773438 -17.757812 L 10.949219 -18.136719 C 10.714844 -18.25 10.542969 -18.152344 10.441406 -17.945312 L 10.289062 -17.644531 C 10.175781 -17.414062 10.023438 -17.292969 9.835938 -17.292969 C 9.636719 -17.292969 9.398438 -17.433594 9.113281 -17.632812 C 8.507812 -18.03125 7.902344 -18.25 7.382812 -18.25 C 6.597656 -18.25 5.886719 -17.851562 5.480469 -16.953125 L 5.394531 -16.800781 C 5.289062 -16.574219 5.375 -16.394531 5.574219 -16.289062 L 6.390625 -15.863281 C 6.605469 -15.742188 6.777344 -15.777344 6.890625 -15.976562 C 7.144531 -16.375 7.25 -16.582031 7.621094 -16.582031 C 8.015625 -16.582031 8.328125 -16.363281 8.679688 -16.117188 C 9.046875 -15.855469 9.457031 -15.609375 10.023438 -15.609375 Z M 8.632812 0.367188 C 13.230469 0.367188 16.441406 -2.660156 16.441406 -7.269531 C 16.441406 -11.878906 13.230469 -14.90625 8.632812 -14.90625 C 4.042969 -14.90625 0.84375 -11.878906 0.84375 -7.269531 C 0.84375 -2.660156 4.042969 0.367188 8.632812 0.367188 Z M 8.632812 -2.648438 C 6.019531 -2.648438 4.15625 -4.457031 4.15625 -7.269531 C 4.15625 -10.089844 6.011719 -11.886719 8.632812 -11.886719 C 11.253906 -11.886719 13.128906 -10.089844 13.128906 -7.269531 C 13.128906 -4.449219 11.253906 -2.648438 8.632812 -2.648438 Z M 8.632812 -2.648438 "/></g></g></g><g fill="#000000" fill-opacity="1"><g transform="translate(269.424984, 126.359671)"><g><path d="M 10.308594 0 C 10.5625 0 10.695312 -0.132812 10.695312 -0.386719 L 10.695312 -2.46875 C 10.695312 -2.714844 10.5625 -2.859375 10.308594 -2.859375 L 4.742188 -2.859375 L 4.742188 -4.902344 L 9.550781 -4.902344 C 9.804688 -4.902344 9.9375 -5.035156 9.9375 -5.289062 L 9.9375 -7.222656 C 9.9375 -7.476562 9.804688 -7.609375 9.550781 -7.609375 L 4.742188 -7.609375 L 4.742188 -11.679688 L 10.308594 -11.679688 C 10.5625 -11.679688 10.695312 -11.820312 10.695312 -12.066406 L 10.695312 -14.148438 C 10.695312 -14.40625 10.5625 -14.539062 10.308594 -14.539062 L 1.828125 -14.539062 C 1.570312 -14.539062 1.4375 -14.40625 1.4375 -14.148438 L 1.4375 -0.386719 C 1.4375 -0.132812 1.570312 0 1.828125 0 Z M 10.308594 0 "/></g></g></g><g fill="#000000" fill-opacity="1"><g transform="translate(281.130744, 126.359671)"><g><path d="M 5.8125 0.367188 C 8.472656 0.367188 11.160156 -0.757812 11.160156 -3.910156 C 11.160156 -6.539062 9.210938 -7.6875 7.441406 -8.554688 C 5.746094 -9.371094 4.371094 -9.902344 4.371094 -10.960938 C 4.371094 -11.792969 5.140625 -12.085938 6.132812 -12.085938 C 7.03125 -12.085938 8.128906 -11.859375 9.105469 -11.480469 C 9.34375 -11.394531 9.511719 -11.492188 9.597656 -11.71875 L 10.210938 -13.695312 C 10.296875 -13.933594 10.222656 -14.101562 9.976562 -14.1875 C 8.671875 -14.632812 7.175781 -14.90625 6.039062 -14.90625 C 3.453125 -14.90625 1.011719 -13.722656 1.011719 -10.722656 C 1.011719 -8.433594 2.566406 -7.296875 4.289062 -6.390625 C 6.039062 -5.472656 7.789062 -4.875 7.789062 -3.757812 C 7.789062 -2.867188 6.984375 -2.460938 5.792969 -2.460938 C 4.769531 -2.460938 3.445312 -2.734375 2.128906 -3.257812 C 1.894531 -3.339844 1.714844 -3.285156 1.628906 -3.039062 L 0.917969 -0.957031 C 0.824219 -0.710938 0.910156 -0.550781 1.15625 -0.453125 C 2.933594 0.140625 4.402344 0.367188 5.8125 0.367188 Z M 5.8125 0.367188 "/></g></g></g><g fill="#000000" fill-opacity="1"><g transform="translate(293.073069, 126.359671)"><g/></g></g><g fill="#000000" fill-opacity="1"><g transform="translate(299.091547, 126.359671)"><g><path d="M 10.308594 0 C 10.5625 0 10.695312 -0.132812 10.695312 -0.386719 L 10.695312 -2.46875 C 10.695312 -2.714844 10.5625 -2.859375 10.308594 -2.859375 L 4.742188 -2.859375 L 4.742188 -4.902344 L 9.550781 -4.902344 C 9.804688 -4.902344 9.9375 -5.035156 9.9375 -5.289062 L 9.9375 -7.222656 C 9.9375 -7.476562 9.804688 -7.609375 9.550781 -7.609375 L 4.742188 -7.609375 L 4.742188 -11.679688 L 10.308594 -11.679688 C 10.5625 -11.679688 10.695312 -11.820312 10.695312 -12.066406 L 10.695312 -14.148438 C 10.695312 -14.40625 10.5625 -14.539062 10.308594 -14.539062 L 1.828125 -14.539062 C 1.570312 -14.539062 1.4375 -14.40625 1.4375 -14.148438 L 1.4375 -0.386719 C 1.4375 -0.132812 1.570312 0 1.828125 0 Z M 10.308594 0 "/></g></g></g><g fill="#000000" fill-opacity="1"><g transform="translate(310.797307, 126.359671)"><g><path d="M 4.304688 0 C 4.550781 0 4.695312 -0.132812 4.695312 -0.386719 L 4.695312 -6.949219 L 8.367188 -2.402344 C 8.539062 -2.1875 8.734375 -2.1875 8.90625 -2.402344 L 12.609375 -6.976562 L 12.609375 -0.386719 C 12.609375 -0.132812 12.75 0 12.996094 0 L 15.457031 0 C 15.710938 0 15.84375 -0.132812 15.84375 -0.386719 L 15.84375 -14.214844 C 15.84375 -14.9375 15.34375 -15.105469 14.898438 -14.539062 L 8.632812 -6.503906 L 2.402344 -14.539062 C 1.949219 -15.125 1.457031 -14.9375 1.457031 -14.214844 L 1.457031 -0.386719 C 1.457031 -0.132812 1.589844 0 1.84375 0 Z M 4.304688 0 "/></g></g></g><g fill="#000000" fill-opacity="1"><g transform="translate(328.095698, 126.359671)"><g/></g></g><g fill="#000000" fill-opacity="1"><g transform="translate(334.114176, 126.359671)"><g><path d="M 6.703125 0 C 6.949219 0 7.089844 -0.132812 7.089844 -0.386719 L 7.089844 -11.679688 L 10.117188 -11.679688 C 10.375 -11.679688 10.507812 -11.820312 10.507812 -12.066406 L 10.507812 -14.148438 C 10.507812 -14.40625 10.375 -14.539062 10.117188 -14.539062 L 0.730469 -14.539062 C 0.484375 -14.539062 0.339844 -14.40625 0.339844 -14.148438 L 0.339844 -12.066406 C 0.339844 -11.820312 0.484375 -11.679688 0.730469 -11.679688 L 3.757812 -11.679688 L 3.757812 -0.386719 C 3.757812 -0.132812 3.898438 0 4.144531 0 Z M 6.703125 0 "/></g></g></g><g fill="#000000" fill-opacity="1"><g transform="translate(344.977717, 126.359671)"><g><path d="M 10.308594 0 C 10.5625 0 10.695312 -0.132812 10.695312 -0.386719 L 10.695312 -2.46875 C 10.695312 -2.714844 10.5625 -2.859375 10.308594 -2.859375 L 4.742188 -2.859375 L 4.742188 -4.902344 L 9.550781 -4.902344 C 9.804688 -4.902344 9.9375 -5.035156 9.9375 -5.289062 L 9.9375 -7.222656 C 9.9375 -7.476562 9.804688 -7.609375 9.550781 -7.609375 L 4.742188 -7.609375 L 4.742188 -11.679688 L 10.308594 -11.679688 C 10.5625 -11.679688 10.695312 -11.820312 10.695312 -12.066406 L 10.695312 -14.148438 C 10.695312 -14.40625 10.5625 -14.539062 10.308594 -14.539062 L 1.828125 -14.539062 C 1.570312 -14.539062 1.4375 -14.40625 1.4375 -14.148438 L 1.4375 -0.386719 C 1.4375 -0.132812 1.570312 0 1.828125 0 Z M 10.308594 0 "/></g></g></g><g fill="#000000" fill-opacity="1"><g transform="translate(356.683477, 126.359671)"><g><path d="M 8.621094 0.367188 C 11.226562 0.367188 13.363281 -0.613281 14.726562 -2.234375 C 14.878906 -2.414062 14.832031 -2.574219 14.625 -2.734375 L 12.542969 -4.144531 C 12.34375 -4.289062 12.171875 -4.257812 12.011719 -4.070312 C 11.214844 -3.191406 10.03125 -2.648438 8.632812 -2.648438 C 6.019531 -2.648438 4.15625 -4.457031 4.15625 -7.269531 C 4.15625 -10.089844 6.019531 -11.886719 8.621094 -11.886719 C 10.03125 -11.886719 11.207031 -11.347656 12.011719 -10.46875 C 12.171875 -10.277344 12.351562 -10.25 12.542969 -10.394531 L 14.625 -11.8125 C 14.820312 -11.964844 14.859375 -12.144531 14.691406 -12.332031 C 13.308594 -13.941406 11.1875 -14.90625 8.621094 -14.90625 C 4.058594 -14.90625 0.84375 -11.886719 0.84375 -7.269531 C 0.84375 -2.648438 4.050781 0.367188 8.621094 0.367188 Z M 8.621094 0.367188 "/></g></g></g><g fill="#000000" fill-opacity="1"><g transform="translate(372.108191, 126.359671)"><g><path d="M 4.277344 0 C 4.523438 0 4.65625 -0.132812 4.65625 -0.386719 L 4.65625 -8.300781 L 12.796875 0 C 13.355469 0.558594 13.828125 0.332031 13.828125 -0.339844 L 13.828125 -14.148438 C 13.828125 -14.40625 13.6875 -14.539062 13.441406 -14.539062 L 11.007812 -14.539062 C 10.753906 -14.539062 10.621094 -14.40625 10.621094 -14.148438 L 10.621094 -6.425781 L 2.402344 -14.613281 C 1.882812 -15.105469 1.457031 -14.878906 1.457031 -14.207031 L 1.457031 -0.386719 C 1.457031 -0.132812 1.589844 0 1.84375 0 Z M 4.277344 0 "/></g></g></g><g fill="#000000" fill-opacity="1"><g transform="translate(387.390971, 126.359671)"><g><path d="M 8.632812 0.367188 C 13.230469 0.367188 16.441406 -2.660156 16.441406 -7.269531 C 16.441406 -11.878906 13.230469 -14.90625 8.632812 -14.90625 C 4.042969 -14.90625 0.84375 -11.878906 0.84375 -7.269531 C 0.84375 -2.660156 4.042969 0.367188 8.632812 0.367188 Z M 8.632812 -2.648438 C 6.019531 -2.648438 4.15625 -4.457031 4.15625 -7.269531 C 4.15625 -10.089844 6.011719 -11.886719 8.632812 -11.886719 C 11.253906 -11.886719 13.128906 -10.089844 13.128906 -7.269531 C 13.128906 -4.449219 11.253906 -2.648438 8.632812 -2.648438 Z M 8.632812 -2.648438 "/></g></g></g><g fill="#000000" fill-opacity="1"><g transform="translate(404.689362, 126.359671)"><g><path d="M 9.105469 0 C 9.359375 0 9.492188 -0.132812 9.492188 -0.386719 L 9.492188 -2.46875 C 9.492188 -2.714844 9.359375 -2.859375 9.105469 -2.859375 L 4.742188 -2.859375 L 4.742188 -14.148438 C 4.742188 -14.40625 4.609375 -14.539062 4.355469 -14.539062 L 1.828125 -14.539062 C 1.570312 -14.539062 1.4375 -14.40625 1.4375 -14.148438 L 1.4375 -0.386719 C 1.4375 -0.132812 1.570312 0 1.828125 0 Z M 9.105469 0 "/></g></g></g><g fill="#000000" fill-opacity="1"><g transform="translate(414.540371, 126.359671)"><g><path d="M 8.632812 0.367188 C 13.230469 0.367188 16.441406 -2.660156 16.441406 -7.269531 C 16.441406 -11.878906 13.230469 -14.90625 8.632812 -14.90625 C 4.042969 -14.90625 0.84375 -11.878906 0.84375 -7.269531 C 0.84375 -2.660156 4.042969 0.367188 8.632812 0.367188 Z M 8.632812 -2.648438 C 6.019531 -2.648438 4.15625 -4.457031 4.15625 -7.269531 C 4.15625 -10.089844 6.011719 -11.886719 8.632812 -11.886719 C 11.253906 -11.886719 13.128906 -10.089844 13.128906 -7.269531 C 13.128906 -4.449219 11.253906 -2.648438 8.632812 -2.648438 Z M 8.632812 -2.648438 "/></g></g></g><g fill="#000000" fill-opacity="1"><g transform="translate(431.838762, 126.359671)"><g><path d="M 8.632812 0.367188 C 11.261719 0.367188 13.441406 -0.613281 14.785156 -2.328125 C 14.886719 -2.453125 14.925781 -2.582031 14.925781 -2.765625 L 14.925781 -7.222656 C 14.925781 -7.476562 14.792969 -7.609375 14.539062 -7.609375 L 9.058594 -7.609375 C 8.8125 -7.609375 8.671875 -7.476562 8.671875 -7.222656 L 8.671875 -5.289062 C 8.671875 -5.035156 8.8125 -4.902344 9.058594 -4.902344 L 11.898438 -4.902344 L 11.898438 -3.84375 C 11.113281 -3 9.976562 -2.5 8.632812 -2.5 C 6.019531 -2.5 4.15625 -4.363281 4.15625 -7.269531 C 4.15625 -10.089844 6.011719 -11.886719 8.632812 -11.886719 C 10.03125 -11.886719 11.207031 -11.347656 12.011719 -10.46875 C 12.171875 -10.277344 12.34375 -10.25 12.542969 -10.394531 L 14.625 -11.8125 C 14.832031 -11.964844 14.859375 -12.144531 14.691406 -12.332031 C 13.308594 -13.941406 11.1875 -14.90625 8.632812 -14.90625 C 4.042969 -14.90625 0.84375 -11.878906 0.84375 -7.269531 C 0.84375 -2.660156 4.042969 0.367188 8.632812 0.367188 Z M 8.632812 0.367188 "/></g></g></g><g fill="#000000" fill-opacity="1"><g transform="translate(447.812332, 126.359671)"><g><path d="M 4.355469 0 C 4.609375 0 4.742188 -0.132812 4.742188 -0.386719 L 4.742188 -14.148438 C 4.742188 -14.40625 4.609375 -14.539062 4.355469 -14.539062 L 1.828125 -14.539062 C 1.570312 -14.539062 1.4375 -14.40625 1.4375 -14.148438 L 1.4375 -0.386719 C 1.4375 -0.132812 1.570312 0 1.828125 0 Z M 4.355469 0 "/></g></g></g><g fill="#000000" fill-opacity="1"><g transform="translate(453.991691, 126.359671)"><g><path d="M 7.742188 -14.539062 C 7.476562 -15.085938 7.042969 -15.085938 6.785156 -14.539062 L 0.304688 -0.464844 C 0.179688 -0.1875 0.304688 0 0.585938 0 L 3.378906 0 C 3.597656 0 3.75 -0.105469 3.824219 -0.304688 L 4.46875 -1.910156 L 10.050781 -1.910156 L 10.695312 -0.304688 C 10.769531 -0.105469 10.921875 0 11.140625 0 L 13.933594 0 C 14.226562 0 14.339844 -0.1875 14.226562 -0.464844 Z M 7.257812 -8.933594 L 9.046875 -4.457031 L 5.480469 -4.457031 Z M 7.257812 -8.933594 "/></g></g></g></svg>