<svg xmlns="http://www.w3.org/2000/svg" xmlns:xlink="http://www.w3.org/1999/xlink" width="500" zoomAndPan="magnify" viewBox="0 0 375 374.999991" height="500" preserveAspectRatio="xMidYMid meet" version="1.0"><defs><g/></defs><g fill="#004aad" fill-opacity="1"><g transform="translate(36.299652, 197.901726)"><g><path d="M 42.515625 -45.515625 L 31.859375 -45.515625 C 30.503906 -45.554688 28.921875 -45.519531 27.109375 -45.40625 C 25.296875 -45.289062 23.4375 -44.941406 21.53125 -44.359375 C 19.632812 -43.785156 17.859375 -42.867188 16.203125 -41.609375 C 14.554688 -40.359375 13.234375 -38.617188 12.234375 -36.390625 C 11.234375 -34.160156 10.734375 -31.320312 10.734375 -27.875 C 10.734375 -23.46875 11.648438 -19.925781 13.484375 -17.25 C 15.316406 -14.582031 17.828125 -12.6875 21.015625 -11.5625 C 24.203125 -10.445312 27.816406 -9.984375 31.859375 -10.171875 L 31.859375 -24.125 L 21.125 -24.125 L 21.125 -34.78125 L 42.515625 -34.78125 L 42.515625 -0.625 C 42.515625 -0.207031 42.257812 0 41.75 0 L 32.6875 0 C 29.945312 0 27.078125 -0.179688 24.078125 -0.546875 C 21.085938 -0.921875 18.160156 -1.644531 15.296875 -2.71875 C 12.441406 -3.789062 9.863281 -5.347656 7.5625 -7.390625 C 5.257812 -9.429688 3.421875 -12.125 2.046875 -15.46875 C 0.679688 -18.820312 0 -22.957031 0 -27.875 C 0 -32.664062 0.671875 -36.695312 2.015625 -39.96875 C 3.367188 -43.25 5.191406 -45.921875 7.484375 -47.984375 C 9.785156 -50.054688 12.351562 -51.660156 15.1875 -52.796875 C 18.03125 -53.941406 20.960938 -54.722656 23.984375 -55.140625 C 27.003906 -55.554688 29.90625 -55.765625 32.6875 -55.765625 L 41.75 -55.765625 C 42.257812 -55.765625 42.515625 -55.554688 42.515625 -55.140625 Z M 42.515625 -45.515625 "/></g></g></g><g fill="#ffffff" fill-opacity="1"><g transform="translate(80.983243, 197.901726)"><g><path d="M 32.546875 -33.046875 C 33.054688 -33.046875 33.3125 -32.832031 33.3125 -32.40625 L 33.3125 -23.5625 C 33.3125 -23.144531 33.054688 -22.9375 32.546875 -22.9375 L 10.671875 -22.9375 L 10.671875 0 L 0.765625 0 C 0.253906 0 0 -0.207031 0 -0.625 L 0 -55.140625 C 0 -55.554688 0.253906 -55.765625 0.765625 -55.765625 L 26.484375 -55.765625 L 26.484375 -45.65625 L 10.671875 -45.65625 L 10.671875 -33.046875 Z M 32.546875 -33.046875 "/></g></g></g><g fill="#ffffff" fill-opacity="1"><g transform="translate(115.968367, 197.901726)"><g><path d="M 26.484375 -10.390625 L 26.484375 0 L 0.765625 0 C 0.253906 0 0 -0.207031 0 -0.625 L 0 -55.140625 C 0 -55.554688 0.253906 -55.765625 0.765625 -55.765625 L 26.484375 -55.765625 L 26.484375 -45.65625 L 10.671875 -45.65625 L 10.671875 -33.046875 L 32.546875 -33.046875 C 33.054688 -33.046875 33.3125 -32.832031 33.3125 -32.40625 L 33.3125 -23.5625 C 33.3125 -23.144531 33.054688 -22.9375 32.546875 -22.9375 L 10.671875 -22.9375 L 10.671875 -10.390625 Z M 26.484375 -10.390625 "/></g></g></g><g fill="#ffffff" fill-opacity="1"><g transform="translate(150.953491, 197.901726)"><g><path d="M 38.0625 -0.90625 C 38.15625 -0.675781 38.140625 -0.46875 38.015625 -0.28125 C 37.898438 -0.09375 37.707031 0 37.4375 0 L 27.46875 0 C 27.09375 0 26.859375 -0.140625 26.765625 -0.421875 L 16.59375 -22.515625 L 10.59375 -22.515625 L 10.59375 -0.625 C 10.59375 -0.207031 10.335938 0 9.828125 0 L 0.703125 0 C 0.234375 0 0 -0.207031 0 -0.625 L 0 -32.765625 L 18.75 -32.765625 C 19.3125 -32.765625 20.054688 -32.8125 20.984375 -32.90625 C 21.910156 -33 22.828125 -33.253906 23.734375 -33.671875 C 24.640625 -34.085938 25.40625 -34.722656 26.03125 -35.578125 C 26.65625 -36.441406 26.96875 -37.640625 26.96875 -39.171875 C 26.96875 -40.703125 26.628906 -41.910156 25.953125 -42.796875 C 25.285156 -43.679688 24.460938 -44.320312 23.484375 -44.71875 C 22.515625 -45.113281 21.585938 -45.367188 20.703125 -45.484375 C 19.816406 -45.597656 19.164062 -45.65625 18.75 -45.65625 L 0 -45.65625 L 0 -55.140625 C 0 -55.554688 0.234375 -55.765625 0.703125 -55.765625 L 18.75 -55.765625 C 19.394531 -55.765625 20.4375 -55.703125 21.875 -55.578125 C 23.320312 -55.460938 24.941406 -55.148438 26.734375 -54.640625 C 28.523438 -54.128906 30.242188 -53.289062 31.890625 -52.125 C 33.535156 -50.96875 34.890625 -49.34375 35.953125 -47.25 C 37.023438 -45.164062 37.5625 -42.472656 37.5625 -39.171875 C 37.5625 -36.335938 37.097656 -33.929688 36.171875 -31.953125 C 35.242188 -29.984375 34 -28.367188 32.4375 -27.109375 C 30.882812 -25.859375 29.179688 -24.882812 27.328125 -24.1875 C 29.085938 -20.238281 30.882812 -16.332031 32.71875 -12.46875 C 34.5625 -8.613281 36.34375 -4.757812 38.0625 -0.90625 Z M 38.0625 -0.90625 "/></g></g></g><g fill="#004aad" fill-opacity="1"><g transform="translate(187.505675, 197.904186)"><g><path d="M 11.5 -35.53125 L 22.09375 -35.53125 L 22.09375 -0.625 C 22.09375 -0.207031 21.8125 0 21.25 0 L 12.265625 0 C 11.753906 0 11.5 -0.207031 11.5 -0.625 Z M 0.765625 -46.1875 C 0.253906 -46.1875 0 -46.394531 0 -46.8125 L 0 -55.109375 C 0 -55.523438 0.253906 -55.734375 0.765625 -55.734375 L 32.75 -55.734375 C 33.257812 -55.734375 33.515625 -55.523438 33.515625 -55.109375 L 33.515625 -46.8125 C 33.515625 -46.394531 33.257812 -46.1875 32.75 -46.1875 Z M 0.765625 -46.1875 "/></g></g></g><g fill="#ffffff" fill-opacity="1"><g transform="translate(222.697079, 197.904186)"><g><path d="M 26.46875 -10.375 L 26.46875 0 L 0.765625 0 C 0.253906 0 0 -0.207031 0 -0.625 L 0 -55.109375 C 0 -55.523438 0.253906 -55.734375 0.765625 -55.734375 L 26.46875 -55.734375 L 26.46875 -45.640625 L 10.65625 -45.640625 L 10.65625 -33.03125 L 32.53125 -33.03125 C 33.039062 -33.03125 33.296875 -32.816406 33.296875 -32.390625 L 33.296875 -23.546875 C 33.296875 -23.128906 33.039062 -22.921875 32.53125 -22.921875 L 10.65625 -22.921875 L 10.65625 -10.375 Z M 26.46875 -10.375 "/></g></g></g><g fill="#ffffff" fill-opacity="1"><g transform="translate(257.670438, 197.904186)"><g><path d="M 31.84375 -10.234375 L 42.5 -10.234375 L 42.5 -0.625 C 42.5 -0.207031 42.242188 0 41.734375 0 L 32.671875 0 C 29.890625 0 26.988281 -0.207031 23.96875 -0.625 C 20.945312 -1.039062 18.019531 -1.816406 15.1875 -2.953125 C 12.351562 -4.097656 9.785156 -5.703125 7.484375 -7.765625 C 5.191406 -9.835938 3.367188 -12.507812 2.015625 -15.78125 C 0.671875 -19.050781 0 -23.082031 0 -27.875 C 0 -32.789062 0.679688 -36.921875 2.046875 -40.265625 C 3.421875 -43.609375 5.257812 -46.300781 7.5625 -48.34375 C 9.863281 -50.394531 12.441406 -51.953125 15.296875 -53.015625 C 18.148438 -54.085938 21.070312 -54.804688 24.0625 -55.171875 C 27.0625 -55.546875 29.929688 -55.734375 32.671875 -55.734375 L 41.734375 -55.734375 C 42.242188 -55.734375 42.5 -55.523438 42.5 -55.109375 L 42.5 -33.234375 L 31.84375 -33.234375 L 31.84375 -45.5625 C 27.800781 -45.789062 24.1875 -45.335938 21 -44.203125 C 17.820312 -43.066406 15.316406 -41.160156 13.484375 -38.484375 C 11.648438 -35.816406 10.734375 -32.28125 10.734375 -27.875 C 10.734375 -24.4375 11.226562 -21.601562 12.21875 -19.375 C 13.21875 -17.144531 14.539062 -15.398438 16.1875 -14.140625 C 17.84375 -12.890625 19.625 -11.972656 21.53125 -11.390625 C 23.4375 -10.804688 25.289062 -10.457031 27.09375 -10.34375 C 28.90625 -10.226562 30.488281 -10.191406 31.84375 -10.234375 Z M 31.84375 -10.234375 "/></g></g></g><g fill="#ffffff" fill-opacity="1"><g transform="translate(302.327662, 197.904186)"><g><path d="M 10.65625 -31.5625 L 0 -31.5625 L 0 -55.109375 C 0 -55.523438 0.253906 -55.734375 0.765625 -55.734375 L 9.890625 -55.734375 C 10.398438 -55.734375 10.65625 -55.523438 10.65625 -55.109375 Z M 41.65625 -55.734375 C 42.175781 -55.734375 42.4375 -55.523438 42.4375 -55.109375 L 42.4375 -0.625 C 42.4375 -0.207031 42.175781 0 41.65625 0 L 32.53125 0 C 32.019531 0 31.765625 -0.207031 31.765625 -0.625 L 31.765625 -10.453125 L 10.65625 -10.453125 L 10.65625 -0.625 C 10.65625 -0.207031 10.398438 0 9.890625 0 L 0.765625 0 C 0.253906 0 0 -0.207031 0 -0.625 L 0 -20.90625 L 10.65625 -20.90625 L 10.65625 -20.828125 L 31.765625 -20.828125 L 31.765625 -55.109375 C 31.765625 -55.523438 32.019531 -55.734375 32.53125 -55.734375 Z M 41.65625 -55.734375 "/></g></g></g><g fill="#ffffff" fill-opacity="1"><g transform="translate(114.711007, 210.839869)"><g><path d="M 3.265625 0.203125 C 2.867188 0.203125 2.457031 0.164062 2.03125 0.09375 C 1.613281 0.03125 1.15625 -0.0820312 0.65625 -0.25 C 0.507812 -0.300781 0.460938 -0.394531 0.515625 -0.53125 L 0.921875 -1.703125 C 0.960938 -1.835938 1.054688 -1.878906 1.203125 -1.828125 C 1.566406 -1.679688 1.925781 -1.570312 2.28125 -1.5 C 2.644531 -1.425781 2.972656 -1.390625 3.265625 -1.390625 C 3.597656 -1.390625 3.863281 -1.445312 4.0625 -1.5625 C 4.269531 -1.675781 4.375 -1.859375 4.375 -2.109375 C 4.375 -2.265625 4.316406 -2.40625 4.203125 -2.53125 C 4.097656 -2.664062 3.953125 -2.785156 3.765625 -2.890625 C 3.578125 -3.003906 3.363281 -3.117188 3.125 -3.234375 C 2.894531 -3.347656 2.65625 -3.46875 2.40625 -3.59375 C 2.164062 -3.71875 1.9375 -3.851562 1.71875 -4 C 1.5 -4.15625 1.300781 -4.328125 1.125 -4.515625 C 0.957031 -4.710938 0.820312 -4.929688 0.71875 -5.171875 C 0.613281 -5.421875 0.5625 -5.707031 0.5625 -6.03125 C 0.5625 -6.457031 0.640625 -6.816406 0.796875 -7.109375 C 0.953125 -7.410156 1.164062 -7.65625 1.4375 -7.84375 C 1.707031 -8.03125 2.007812 -8.164062 2.34375 -8.25 C 2.6875 -8.34375 3.035156 -8.390625 3.390625 -8.390625 C 3.609375 -8.390625 3.84375 -8.375 4.09375 -8.34375 C 4.34375 -8.3125 4.597656 -8.265625 4.859375 -8.203125 C 5.117188 -8.140625 5.367188 -8.066406 5.609375 -7.984375 C 5.753906 -7.929688 5.800781 -7.835938 5.75 -7.703125 L 5.40625 -6.59375 C 5.351562 -6.457031 5.257812 -6.410156 5.125 -6.453125 C 4.851562 -6.566406 4.566406 -6.648438 4.265625 -6.703125 C 3.972656 -6.765625 3.703125 -6.796875 3.453125 -6.796875 C 3.265625 -6.796875 3.09375 -6.773438 2.9375 -6.734375 C 2.789062 -6.691406 2.671875 -6.625 2.578125 -6.53125 C 2.492188 -6.445312 2.453125 -6.328125 2.453125 -6.171875 C 2.453125 -6.015625 2.5 -5.878906 2.59375 -5.765625 C 2.6875 -5.648438 2.8125 -5.539062 2.96875 -5.4375 C 3.125 -5.332031 3.304688 -5.226562 3.515625 -5.125 C 3.722656 -5.03125 3.945312 -4.925781 4.1875 -4.8125 C 4.4375 -4.695312 4.679688 -4.5625 4.921875 -4.40625 C 5.171875 -4.257812 5.394531 -4.082031 5.59375 -3.875 C 5.800781 -3.675781 5.96875 -3.4375 6.09375 -3.15625 C 6.21875 -2.882812 6.28125 -2.566406 6.28125 -2.203125 C 6.28125 -1.847656 6.222656 -1.535156 6.109375 -1.265625 C 5.992188 -1.003906 5.835938 -0.773438 5.640625 -0.578125 C 5.453125 -0.390625 5.226562 -0.238281 4.96875 -0.125 C 4.71875 -0.0078125 4.445312 0.0703125 4.15625 0.125 C 3.863281 0.175781 3.566406 0.203125 3.265625 0.203125 Z M 3.265625 0.203125 "/></g></g></g><g fill="#ffffff" fill-opacity="1"><g transform="translate(121.433964, 210.839869)"><g><path d="M 4.859375 0.203125 C 4.210938 0.203125 3.617188 0.101562 3.078125 -0.09375 C 2.546875 -0.300781 2.082031 -0.59375 1.6875 -0.96875 C 1.300781 -1.34375 1 -1.789062 0.78125 -2.3125 C 0.570312 -2.84375 0.46875 -3.4375 0.46875 -4.09375 C 0.46875 -4.738281 0.570312 -5.320312 0.78125 -5.84375 C 1 -6.375 1.300781 -6.828125 1.6875 -7.203125 C 2.082031 -7.585938 2.546875 -7.878906 3.078125 -8.078125 C 3.617188 -8.285156 4.210938 -8.390625 4.859375 -8.390625 C 5.503906 -8.390625 6.09375 -8.285156 6.625 -8.078125 C 7.164062 -7.878906 7.628906 -7.585938 8.015625 -7.203125 C 8.410156 -6.828125 8.710938 -6.375 8.921875 -5.84375 C 9.140625 -5.320312 9.25 -4.738281 9.25 -4.09375 C 9.25 -3.4375 9.140625 -2.84375 8.921875 -2.3125 C 8.710938 -1.789062 8.410156 -1.34375 8.015625 -0.96875 C 7.628906 -0.59375 7.164062 -0.300781 6.625 -0.09375 C 6.09375 0.101562 5.503906 0.203125 4.859375 0.203125 Z M 4.859375 -1.484375 C 5.222656 -1.484375 5.5625 -1.546875 5.875 -1.671875 C 6.1875 -1.796875 6.453125 -1.96875 6.671875 -2.1875 C 6.898438 -2.414062 7.078125 -2.691406 7.203125 -3.015625 C 7.328125 -3.335938 7.390625 -3.695312 7.390625 -4.09375 C 7.390625 -4.488281 7.328125 -4.84375 7.203125 -5.15625 C 7.078125 -5.476562 6.898438 -5.753906 6.671875 -5.984375 C 6.453125 -6.210938 6.1875 -6.382812 5.875 -6.5 C 5.5625 -6.625 5.222656 -6.6875 4.859375 -6.6875 C 4.484375 -6.6875 4.140625 -6.625 3.828125 -6.5 C 3.523438 -6.382812 3.257812 -6.210938 3.03125 -5.984375 C 2.8125 -5.753906 2.640625 -5.476562 2.515625 -5.15625 C 2.398438 -4.84375 2.34375 -4.488281 2.34375 -4.09375 C 2.34375 -3.695312 2.398438 -3.335938 2.515625 -3.015625 C 2.640625 -2.703125 2.8125 -2.429688 3.03125 -2.203125 C 3.257812 -1.972656 3.53125 -1.796875 3.84375 -1.671875 C 4.15625 -1.546875 4.492188 -1.484375 4.859375 -1.484375 Z M 4.859375 -1.484375 "/></g></g></g><g fill="#ffffff" fill-opacity="1"><g transform="translate(131.17213, 210.839869)"><g><path d="M 5.125 0 L 1.03125 0 C 0.882812 0 0.8125 -0.0703125 0.8125 -0.21875 L 0.8125 -7.96875 C 0.8125 -8.113281 0.882812 -8.1875 1.03125 -8.1875 L 2.453125 -8.1875 C 2.597656 -8.1875 2.671875 -8.113281 2.671875 -7.96875 L 2.671875 -1.609375 L 5.125 -1.609375 C 5.269531 -1.609375 5.34375 -1.535156 5.34375 -1.390625 L 5.34375 -0.21875 C 5.34375 -0.0703125 5.269531 0 5.125 0 Z M 5.125 0 "/></g></g></g><g fill="#ffffff" fill-opacity="1"><g transform="translate(136.717776, 210.839869)"><g><path d="M 4.1875 0.203125 C 3.726562 0.203125 3.289062 0.144531 2.875 0.03125 C 2.457031 -0.0703125 2.085938 -0.238281 1.765625 -0.46875 C 1.441406 -0.707031 1.1875 -1.007812 1 -1.375 C 0.820312 -1.75 0.734375 -2.195312 0.734375 -2.71875 L 0.734375 -7.96875 C 0.734375 -8.113281 0.804688 -8.1875 0.953125 -8.1875 L 2.421875 -8.1875 C 2.566406 -8.1875 2.640625 -8.113281 2.640625 -7.96875 L 2.640625 -3.15625 C 2.640625 -2.757812 2.695312 -2.4375 2.8125 -2.1875 C 2.9375 -1.945312 3.113281 -1.769531 3.34375 -1.65625 C 3.582031 -1.539062 3.863281 -1.484375 4.1875 -1.484375 C 4.519531 -1.484375 4.800781 -1.539062 5.03125 -1.65625 C 5.257812 -1.769531 5.429688 -1.945312 5.546875 -2.1875 C 5.671875 -2.4375 5.734375 -2.757812 5.734375 -3.15625 L 5.734375 -7.96875 C 5.734375 -8.113281 5.804688 -8.1875 5.953125 -8.1875 L 7.421875 -8.1875 C 7.566406 -8.1875 7.640625 -8.113281 7.640625 -7.96875 L 7.640625 -2.71875 C 7.640625 -2.195312 7.546875 -1.75 7.359375 -1.375 C 7.179688 -1.007812 6.929688 -0.707031 6.609375 -0.46875 C 6.296875 -0.238281 5.929688 -0.0703125 5.515625 0.03125 C 5.097656 0.144531 4.65625 0.203125 4.1875 0.203125 Z M 4.1875 0.203125 "/></g></g></g><g fill="#ffffff" fill-opacity="1"><g transform="translate(145.092173, 210.839869)"><g><path d="M 7.0625 -2.328125 L 8.234375 -1.53125 C 8.347656 -1.445312 8.363281 -1.351562 8.28125 -1.25 C 7.925781 -0.820312 7.476562 -0.476562 6.9375 -0.21875 C 6.394531 0.03125 5.785156 0.171875 5.109375 0.203125 L 5.03125 0.484375 C 5.1875 0.503906 5.332031 0.546875 5.46875 0.609375 C 5.613281 0.679688 5.726562 0.773438 5.8125 0.890625 C 5.90625 1.015625 5.953125 1.171875 5.953125 1.359375 C 5.953125 1.578125 5.890625 1.769531 5.765625 1.9375 C 5.640625 2.113281 5.441406 2.253906 5.171875 2.359375 C 4.910156 2.472656 4.570312 2.535156 4.15625 2.546875 C 4.070312 2.554688 4.007812 2.539062 3.96875 2.5 C 3.9375 2.457031 3.929688 2.398438 3.953125 2.328125 L 4.046875 1.921875 C 4.078125 1.796875 4.15625 1.726562 4.28125 1.71875 C 4.457031 1.707031 4.609375 1.671875 4.734375 1.609375 C 4.867188 1.546875 4.9375 1.429688 4.9375 1.265625 C 4.9375 1.140625 4.898438 1.039062 4.828125 0.96875 C 4.753906 0.90625 4.644531 0.859375 4.5 0.828125 C 4.414062 0.804688 4.359375 0.773438 4.328125 0.734375 C 4.304688 0.703125 4.300781 0.648438 4.3125 0.578125 L 4.421875 0.1875 C 3.828125 0.144531 3.289062 0.015625 2.8125 -0.203125 C 2.332031 -0.421875 1.914062 -0.71875 1.5625 -1.09375 C 1.21875 -1.46875 0.945312 -1.90625 0.75 -2.40625 C 0.5625 -2.914062 0.46875 -3.476562 0.46875 -4.09375 C 0.46875 -4.738281 0.570312 -5.320312 0.78125 -5.84375 C 1 -6.375 1.300781 -6.828125 1.6875 -7.203125 C 2.082031 -7.585938 2.546875 -7.878906 3.078125 -8.078125 C 3.617188 -8.285156 4.207031 -8.390625 4.84375 -8.390625 C 5.570312 -8.390625 6.226562 -8.257812 6.8125 -8 C 7.394531 -7.75 7.878906 -7.394531 8.265625 -6.9375 C 8.359375 -6.832031 8.347656 -6.734375 8.234375 -6.640625 L 7.0625 -5.84375 C 6.945312 -5.757812 6.847656 -5.773438 6.765625 -5.890625 C 6.535156 -6.140625 6.257812 -6.332031 5.9375 -6.46875 C 5.613281 -6.613281 5.25 -6.6875 4.84375 -6.6875 C 4.476562 -6.6875 4.140625 -6.625 3.828125 -6.5 C 3.523438 -6.382812 3.257812 -6.210938 3.03125 -5.984375 C 2.8125 -5.753906 2.640625 -5.476562 2.515625 -5.15625 C 2.398438 -4.84375 2.34375 -4.488281 2.34375 -4.09375 C 2.34375 -3.695312 2.398438 -3.335938 2.515625 -3.015625 C 2.640625 -2.703125 2.8125 -2.429688 3.03125 -2.203125 C 3.257812 -1.972656 3.53125 -1.796875 3.84375 -1.671875 C 4.15625 -1.546875 4.492188 -1.484375 4.859375 -1.484375 C 5.253906 -1.484375 5.613281 -1.554688 5.9375 -1.703125 C 6.257812 -1.847656 6.535156 -2.046875 6.765625 -2.296875 C 6.847656 -2.398438 6.945312 -2.410156 7.0625 -2.328125 Z M 7.0625 -2.328125 "/></g></g></g><g fill="#ffffff" fill-opacity="1"><g transform="translate(153.775549, 210.839869)"><g><path d="M 5.640625 -8.78125 C 5.484375 -8.78125 5.34375 -8.804688 5.21875 -8.859375 C 5.09375 -8.921875 4.984375 -8.988281 4.890625 -9.0625 C 4.785156 -9.132812 4.6875 -9.195312 4.59375 -9.25 C 4.5 -9.300781 4.394531 -9.328125 4.28125 -9.328125 C 4.175781 -9.328125 4.097656 -9.296875 4.046875 -9.234375 C 4.003906 -9.179688 3.945312 -9.097656 3.875 -8.984375 C 3.8125 -8.867188 3.71875 -8.847656 3.59375 -8.921875 L 3.140625 -9.171875 C 3.078125 -9.191406 3.035156 -9.226562 3.015625 -9.28125 C 3.003906 -9.332031 3.007812 -9.390625 3.03125 -9.453125 L 3.078125 -9.53125 C 3.191406 -9.789062 3.34375 -9.976562 3.53125 -10.09375 C 3.726562 -10.207031 3.9375 -10.265625 4.15625 -10.265625 C 4.445312 -10.265625 4.769531 -10.148438 5.125 -9.921875 C 5.207031 -9.859375 5.28125 -9.8125 5.34375 -9.78125 C 5.414062 -9.75 5.476562 -9.734375 5.53125 -9.734375 C 5.632812 -9.734375 5.71875 -9.796875 5.78125 -9.921875 L 5.875 -10.09375 C 5.90625 -10.15625 5.941406 -10.195312 5.984375 -10.21875 C 6.035156 -10.238281 6.09375 -10.234375 6.15625 -10.203125 L 6.625 -9.984375 C 6.675781 -9.960938 6.710938 -9.921875 6.734375 -9.859375 C 6.753906 -9.804688 6.75 -9.753906 6.71875 -9.703125 L 6.640625 -9.53125 C 6.523438 -9.289062 6.382812 -9.101562 6.21875 -8.96875 C 6.0625 -8.84375 5.867188 -8.78125 5.640625 -8.78125 Z M 4.859375 0.203125 C 4.210938 0.203125 3.617188 0.101562 3.078125 -0.09375 C 2.546875 -0.300781 2.082031 -0.59375 1.6875 -0.96875 C 1.300781 -1.34375 1 -1.789062 0.78125 -2.3125 C 0.570312 -2.84375 0.46875 -3.4375 0.46875 -4.09375 C 0.46875 -4.738281 0.570312 -5.320312 0.78125 -5.84375 C 1 -6.375 1.300781 -6.828125 1.6875 -7.203125 C 2.082031 -7.585938 2.546875 -7.878906 3.078125 -8.078125 C 3.617188 -8.285156 4.210938 -8.390625 4.859375 -8.390625 C 5.503906 -8.390625 6.09375 -8.285156 6.625 -8.078125 C 7.164062 -7.878906 7.628906 -7.585938 8.015625 -7.203125 C 8.410156 -6.828125 8.710938 -6.375 8.921875 -5.84375 C 9.140625 -5.320312 9.25 -4.738281 9.25 -4.09375 C 9.25 -3.4375 9.140625 -2.84375 8.921875 -2.3125 C 8.710938 -1.789062 8.410156 -1.34375 8.015625 -0.96875 C 7.628906 -0.59375 7.164062 -0.300781 6.625 -0.09375 C 6.09375 0.101562 5.503906 0.203125 4.859375 0.203125 Z M 4.859375 -1.484375 C 5.222656 -1.484375 5.5625 -1.546875 5.875 -1.671875 C 6.1875 -1.796875 6.453125 -1.96875 6.671875 -2.1875 C 6.898438 -2.414062 7.078125 -2.691406 7.203125 -3.015625 C 7.328125 -3.335938 7.390625 -3.695312 7.390625 -4.09375 C 7.390625 -4.488281 7.328125 -4.84375 7.203125 -5.15625 C 7.078125 -5.476562 6.898438 -5.753906 6.671875 -5.984375 C 6.453125 -6.210938 6.1875 -6.382812 5.875 -6.5 C 5.5625 -6.625 5.222656 -6.6875 4.859375 -6.6875 C 4.484375 -6.6875 4.140625 -6.625 3.828125 -6.5 C 3.523438 -6.382812 3.257812 -6.210938 3.03125 -5.984375 C 2.8125 -5.753906 2.640625 -5.476562 2.515625 -5.15625 C 2.398438 -4.84375 2.34375 -4.488281 2.34375 -4.09375 C 2.34375 -3.695312 2.398438 -3.335938 2.515625 -3.015625 C 2.640625 -2.703125 2.8125 -2.429688 3.03125 -2.203125 C 3.257812 -1.972656 3.53125 -1.796875 3.84375 -1.671875 C 4.15625 -1.546875 4.492188 -1.484375 4.859375 -1.484375 Z M 4.859375 -1.484375 "/></g></g></g><g fill="#ffffff" fill-opacity="1"><g transform="translate(163.513715, 210.839869)"><g><path d="M 5.796875 0 L 1.03125 0 C 0.882812 0 0.8125 -0.0703125 0.8125 -0.21875 L 0.8125 -7.96875 C 0.8125 -8.113281 0.882812 -8.1875 1.03125 -8.1875 L 5.796875 -8.1875 C 5.941406 -8.1875 6.015625 -8.113281 6.015625 -7.96875 L 6.015625 -6.796875 C 6.015625 -6.648438 5.941406 -6.578125 5.796875 -6.578125 L 2.671875 -6.578125 L 2.671875 -4.28125 L 5.375 -4.28125 C 5.519531 -4.28125 5.59375 -4.207031 5.59375 -4.0625 L 5.59375 -2.984375 C 5.59375 -2.835938 5.519531 -2.765625 5.375 -2.765625 L 2.671875 -2.765625 L 2.671875 -1.609375 L 5.796875 -1.609375 C 5.941406 -1.609375 6.015625 -1.535156 6.015625 -1.390625 L 6.015625 -0.21875 C 6.015625 -0.0703125 5.941406 0 5.796875 0 Z M 5.796875 0 "/></g></g></g><g fill="#ffffff" fill-opacity="1"><g transform="translate(170.103497, 210.839869)"><g><path d="M 3.265625 0.203125 C 2.867188 0.203125 2.457031 0.164062 2.03125 0.09375 C 1.613281 0.03125 1.15625 -0.0820312 0.65625 -0.25 C 0.507812 -0.300781 0.460938 -0.394531 0.515625 -0.53125 L 0.921875 -1.703125 C 0.960938 -1.835938 1.054688 -1.878906 1.203125 -1.828125 C 1.566406 -1.679688 1.925781 -1.570312 2.28125 -1.5 C 2.644531 -1.425781 2.972656 -1.390625 3.265625 -1.390625 C 3.597656 -1.390625 3.863281 -1.445312 4.0625 -1.5625 C 4.269531 -1.675781 4.375 -1.859375 4.375 -2.109375 C 4.375 -2.265625 4.316406 -2.40625 4.203125 -2.53125 C 4.097656 -2.664062 3.953125 -2.785156 3.765625 -2.890625 C 3.578125 -3.003906 3.363281 -3.117188 3.125 -3.234375 C 2.894531 -3.347656 2.65625 -3.46875 2.40625 -3.59375 C 2.164062 -3.71875 1.9375 -3.851562 1.71875 -4 C 1.5 -4.15625 1.300781 -4.328125 1.125 -4.515625 C 0.957031 -4.710938 0.820312 -4.929688 0.71875 -5.171875 C 0.613281 -5.421875 0.5625 -5.707031 0.5625 -6.03125 C 0.5625 -6.457031 0.640625 -6.816406 0.796875 -7.109375 C 0.953125 -7.410156 1.164062 -7.65625 1.4375 -7.84375 C 1.707031 -8.03125 2.007812 -8.164062 2.34375 -8.25 C 2.6875 -8.34375 3.035156 -8.390625 3.390625 -8.390625 C 3.609375 -8.390625 3.84375 -8.375 4.09375 -8.34375 C 4.34375 -8.3125 4.597656 -8.265625 4.859375 -8.203125 C 5.117188 -8.140625 5.367188 -8.066406 5.609375 -7.984375 C 5.753906 -7.929688 5.800781 -7.835938 5.75 -7.703125 L 5.40625 -6.59375 C 5.351562 -6.457031 5.257812 -6.410156 5.125 -6.453125 C 4.851562 -6.566406 4.566406 -6.648438 4.265625 -6.703125 C 3.972656 -6.765625 3.703125 -6.796875 3.453125 -6.796875 C 3.265625 -6.796875 3.09375 -6.773438 2.9375 -6.734375 C 2.789062 -6.691406 2.671875 -6.625 2.578125 -6.53125 C 2.492188 -6.445312 2.453125 -6.328125 2.453125 -6.171875 C 2.453125 -6.015625 2.5 -5.878906 2.59375 -5.765625 C 2.6875 -5.648438 2.8125 -5.539062 2.96875 -5.4375 C 3.125 -5.332031 3.304688 -5.226562 3.515625 -5.125 C 3.722656 -5.03125 3.945312 -4.925781 4.1875 -4.8125 C 4.4375 -4.695312 4.679688 -4.5625 4.921875 -4.40625 C 5.171875 -4.257812 5.394531 -4.082031 5.59375 -3.875 C 5.800781 -3.675781 5.96875 -3.4375 6.09375 -3.15625 C 6.21875 -2.882812 6.28125 -2.566406 6.28125 -2.203125 C 6.28125 -1.847656 6.222656 -1.535156 6.109375 -1.265625 C 5.992188 -1.003906 5.835938 -0.773438 5.640625 -0.578125 C 5.453125 -0.390625 5.226562 -0.238281 4.96875 -0.125 C 4.71875 -0.0078125 4.445312 0.0703125 4.15625 0.125 C 3.863281 0.175781 3.566406 0.203125 3.265625 0.203125 Z M 3.265625 0.203125 "/></g></g></g><g fill="#ffffff" fill-opacity="1"><g transform="translate(176.826455, 210.839869)"><g/></g></g><g fill="#ffffff" fill-opacity="1"><g transform="translate(180.214569, 210.839869)"><g><path d="M 5.796875 0 L 1.03125 0 C 0.882812 0 0.8125 -0.0703125 0.8125 -0.21875 L 0.8125 -7.96875 C 0.8125 -8.113281 0.882812 -8.1875 1.03125 -8.1875 L 5.796875 -8.1875 C 5.941406 -8.1875 6.015625 -8.113281 6.015625 -7.96875 L 6.015625 -6.796875 C 6.015625 -6.648438 5.941406 -6.578125 5.796875 -6.578125 L 2.671875 -6.578125 L 2.671875 -4.28125 L 5.375 -4.28125 C 5.519531 -4.28125 5.59375 -4.207031 5.59375 -4.0625 L 5.59375 -2.984375 C 5.59375 -2.835938 5.519531 -2.765625 5.375 -2.765625 L 2.671875 -2.765625 L 2.671875 -1.609375 L 5.796875 -1.609375 C 5.941406 -1.609375 6.015625 -1.535156 6.015625 -1.390625 L 6.015625 -0.21875 C 6.015625 -0.0703125 5.941406 0 5.796875 0 Z M 5.796875 0 "/></g></g></g><g fill="#ffffff" fill-opacity="1"><g transform="translate(186.804352, 210.839869)"><g><path d="M 2.421875 0 L 1.03125 0 C 0.882812 0 0.8125 -0.0703125 0.8125 -0.21875 L 0.8125 -8 C 0.8125 -8.132812 0.835938 -8.234375 0.890625 -8.296875 C 0.953125 -8.359375 1.019531 -8.378906 1.09375 -8.359375 C 1.175781 -8.347656 1.265625 -8.289062 1.359375 -8.1875 L 4.859375 -3.65625 L 8.375 -8.1875 C 8.46875 -8.289062 8.550781 -8.347656 8.625 -8.359375 C 8.707031 -8.378906 8.773438 -8.359375 8.828125 -8.296875 C 8.890625 -8.234375 8.921875 -8.132812 8.921875 -8 L 8.921875 -0.21875 C 8.921875 -0.0703125 8.847656 0 8.703125 0 L 7.3125 0 C 7.164062 0 7.09375 -0.0703125 7.09375 -0.21875 L 7.09375 -3.921875 L 5.015625 -1.359375 C 4.910156 -1.222656 4.804688 -1.222656 4.703125 -1.359375 L 2.640625 -3.90625 L 2.640625 -0.21875 C 2.640625 -0.0703125 2.566406 0 2.421875 0 Z M 2.421875 0 "/></g></g></g><g fill="#ffffff" fill-opacity="1"><g transform="translate(196.542518, 210.839869)"><g/></g></g><g fill="#ffffff" fill-opacity="1"><g transform="translate(199.930632, 210.839869)"><g><path d="M 3.765625 0 L 2.328125 0 C 2.179688 0 2.109375 -0.0703125 2.109375 -0.21875 L 2.109375 -6.578125 L 0.40625 -6.578125 C 0.257812 -6.578125 0.1875 -6.648438 0.1875 -6.796875 L 0.1875 -7.96875 C 0.1875 -8.113281 0.257812 -8.1875 0.40625 -8.1875 L 5.6875 -8.1875 C 5.832031 -8.1875 5.90625 -8.113281 5.90625 -7.96875 L 5.90625 -6.796875 C 5.90625 -6.648438 5.832031 -6.578125 5.6875 -6.578125 L 3.984375 -6.578125 L 3.984375 -0.21875 C 3.984375 -0.0703125 3.910156 0 3.765625 0 Z M 3.765625 0 "/></g></g></g><g fill="#ffffff" fill-opacity="1"><g transform="translate(206.046286, 210.839869)"><g><path d="M 5.796875 0 L 1.03125 0 C 0.882812 0 0.8125 -0.0703125 0.8125 -0.21875 L 0.8125 -7.96875 C 0.8125 -8.113281 0.882812 -8.1875 1.03125 -8.1875 L 5.796875 -8.1875 C 5.941406 -8.1875 6.015625 -8.113281 6.015625 -7.96875 L 6.015625 -6.796875 C 6.015625 -6.648438 5.941406 -6.578125 5.796875 -6.578125 L 2.671875 -6.578125 L 2.671875 -4.28125 L 5.375 -4.28125 C 5.519531 -4.28125 5.59375 -4.207031 5.59375 -4.0625 L 5.59375 -2.984375 C 5.59375 -2.835938 5.519531 -2.765625 5.375 -2.765625 L 2.671875 -2.765625 L 2.671875 -1.609375 L 5.796875 -1.609375 C 5.941406 -1.609375 6.015625 -1.535156 6.015625 -1.390625 L 6.015625 -0.21875 C 6.015625 -0.0703125 5.941406 0 5.796875 0 Z M 5.796875 0 "/></g></g></g><g fill="#ffffff" fill-opacity="1"><g transform="translate(212.636068, 210.839869)"><g><path d="M 4.84375 0.203125 C 4.207031 0.203125 3.617188 0.101562 3.078125 -0.09375 C 2.546875 -0.300781 2.082031 -0.59375 1.6875 -0.96875 C 1.300781 -1.34375 1 -1.789062 0.78125 -2.3125 C 0.570312 -2.84375 0.46875 -3.4375 0.46875 -4.09375 C 0.46875 -4.738281 0.570312 -5.320312 0.78125 -5.84375 C 1 -6.375 1.300781 -6.828125 1.6875 -7.203125 C 2.082031 -7.585938 2.546875 -7.878906 3.078125 -8.078125 C 3.617188 -8.285156 4.207031 -8.390625 4.84375 -8.390625 C 5.570312 -8.390625 6.226562 -8.257812 6.8125 -8 C 7.394531 -7.75 7.878906 -7.394531 8.265625 -6.9375 C 8.359375 -6.832031 8.347656 -6.734375 8.234375 -6.640625 L 7.0625 -5.84375 C 6.945312 -5.757812 6.847656 -5.773438 6.765625 -5.890625 C 6.535156 -6.140625 6.257812 -6.332031 5.9375 -6.46875 C 5.613281 -6.613281 5.25 -6.6875 4.84375 -6.6875 C 4.476562 -6.6875 4.140625 -6.625 3.828125 -6.5 C 3.523438 -6.382812 3.257812 -6.210938 3.03125 -5.984375 C 2.8125 -5.753906 2.640625 -5.476562 2.515625 -5.15625 C 2.398438 -4.84375 2.34375 -4.488281 2.34375 -4.09375 C 2.34375 -3.695312 2.398438 -3.335938 2.515625 -3.015625 C 2.640625 -2.703125 2.8125 -2.429688 3.03125 -2.203125 C 3.257812 -1.972656 3.53125 -1.796875 3.84375 -1.671875 C 4.15625 -1.546875 4.492188 -1.484375 4.859375 -1.484375 C 5.253906 -1.484375 5.613281 -1.554688 5.9375 -1.703125 C 6.257812 -1.847656 6.535156 -2.046875 6.765625 -2.296875 C 6.847656 -2.398438 6.945312 -2.410156 7.0625 -2.328125 L 8.234375 -1.53125 C 8.347656 -1.445312 8.363281 -1.351562 8.28125 -1.25 C 7.90625 -0.800781 7.421875 -0.445312 6.828125 -0.1875 C 6.242188 0.0703125 5.582031 0.203125 4.84375 0.203125 Z M 4.84375 0.203125 "/></g></g></g><g fill="#ffffff" fill-opacity="1"><g transform="translate(221.319444, 210.839869)"><g><path d="M 2.40625 0 L 1.03125 0 C 0.882812 0 0.8125 -0.0703125 0.8125 -0.21875 L 0.8125 -8 C 0.8125 -8.1875 0.863281 -8.304688 0.96875 -8.359375 C 1.082031 -8.410156 1.210938 -8.363281 1.359375 -8.21875 L 5.96875 -3.609375 L 5.96875 -7.96875 C 5.96875 -8.113281 6.039062 -8.1875 6.1875 -8.1875 L 7.5625 -8.1875 C 7.707031 -8.1875 7.78125 -8.113281 7.78125 -7.96875 L 7.78125 -0.1875 C 7.78125 -0.0625 7.753906 0.03125 7.703125 0.09375 C 7.648438 0.15625 7.578125 0.179688 7.484375 0.171875 C 7.398438 0.160156 7.304688 0.101562 7.203125 0 L 2.625 -4.671875 L 2.625 -0.21875 C 2.625 -0.0703125 2.550781 0 2.40625 0 Z M 2.40625 0 "/></g></g></g><g fill="#ffffff" fill-opacity="1"><g transform="translate(229.922917, 210.839869)"><g><path d="M 4.859375 0.203125 C 4.210938 0.203125 3.617188 0.101562 3.078125 -0.09375 C 2.546875 -0.300781 2.082031 -0.59375 1.6875 -0.96875 C 1.300781 -1.34375 1 -1.789062 0.78125 -2.3125 C 0.570312 -2.84375 0.46875 -3.4375 0.46875 -4.09375 C 0.46875 -4.738281 0.570312 -5.320312 0.78125 -5.84375 C 1 -6.375 1.300781 -6.828125 1.6875 -7.203125 C 2.082031 -7.585938 2.546875 -7.878906 3.078125 -8.078125 C 3.617188 -8.285156 4.210938 -8.390625 4.859375 -8.390625 C 5.503906 -8.390625 6.09375 -8.285156 6.625 -8.078125 C 7.164062 -7.878906 7.628906 -7.585938 8.015625 -7.203125 C 8.410156 -6.828125 8.710938 -6.375 8.921875 -5.84375 C 9.140625 -5.320312 9.25 -4.738281 9.25 -4.09375 C 9.25 -3.4375 9.140625 -2.84375 8.921875 -2.3125 C 8.710938 -1.789062 8.410156 -1.34375 8.015625 -0.96875 C 7.628906 -0.59375 7.164062 -0.300781 6.625 -0.09375 C 6.09375 0.101562 5.503906 0.203125 4.859375 0.203125 Z M 4.859375 -1.484375 C 5.222656 -1.484375 5.5625 -1.546875 5.875 -1.671875 C 6.1875 -1.796875 6.453125 -1.96875 6.671875 -2.1875 C 6.898438 -2.414062 7.078125 -2.691406 7.203125 -3.015625 C 7.328125 -3.335938 7.390625 -3.695312 7.390625 -4.09375 C 7.390625 -4.488281 7.328125 -4.84375 7.203125 -5.15625 C 7.078125 -5.476562 6.898438 -5.753906 6.671875 -5.984375 C 6.453125 -6.210938 6.1875 -6.382812 5.875 -6.5 C 5.5625 -6.625 5.222656 -6.6875 4.859375 -6.6875 C 4.484375 -6.6875 4.140625 -6.625 3.828125 -6.5 C 3.523438 -6.382812 3.257812 -6.210938 3.03125 -5.984375 C 2.8125 -5.753906 2.640625 -5.476562 2.515625 -5.15625 C 2.398438 -4.84375 2.34375 -4.488281 2.34375 -4.09375 C 2.34375 -3.695312 2.398438 -3.335938 2.515625 -3.015625 C 2.640625 -2.703125 2.8125 -2.429688 3.03125 -2.203125 C 3.257812 -1.972656 3.53125 -1.796875 3.84375 -1.671875 C 4.15625 -1.546875 4.492188 -1.484375 4.859375 -1.484375 Z M 4.859375 -1.484375 "/></g></g></g><g fill="#ffffff" fill-opacity="1"><g transform="translate(239.661083, 210.839869)"><g><path d="M 5.125 0 L 1.03125 0 C 0.882812 0 0.8125 -0.0703125 0.8125 -0.21875 L 0.8125 -7.96875 C 0.8125 -8.113281 0.882812 -8.1875 1.03125 -8.1875 L 2.453125 -8.1875 C 2.597656 -8.1875 2.671875 -8.113281 2.671875 -7.96875 L 2.671875 -1.609375 L 5.125 -1.609375 C 5.269531 -1.609375 5.34375 -1.535156 5.34375 -1.390625 L 5.34375 -0.21875 C 5.34375 -0.0703125 5.269531 0 5.125 0 Z M 5.125 0 "/></g></g></g><g fill="#ffffff" fill-opacity="1"><g transform="translate(245.20673, 210.839869)"><g><path d="M 4.859375 0.203125 C 4.210938 0.203125 3.617188 0.101562 3.078125 -0.09375 C 2.546875 -0.300781 2.082031 -0.59375 1.6875 -0.96875 C 1.300781 -1.34375 1 -1.789062 0.78125 -2.3125 C 0.570312 -2.84375 0.46875 -3.4375 0.46875 -4.09375 C 0.46875 -4.738281 0.570312 -5.320312 0.78125 -5.84375 C 1 -6.375 1.300781 -6.828125 1.6875 -7.203125 C 2.082031 -7.585938 2.546875 -7.878906 3.078125 -8.078125 C 3.617188 -8.285156 4.210938 -8.390625 4.859375 -8.390625 C 5.503906 -8.390625 6.09375 -8.285156 6.625 -8.078125 C 7.164062 -7.878906 7.628906 -7.585938 8.015625 -7.203125 C 8.410156 -6.828125 8.710938 -6.375 8.921875 -5.84375 C 9.140625 -5.320312 9.25 -4.738281 9.25 -4.09375 C 9.25 -3.4375 9.140625 -2.84375 8.921875 -2.3125 C 8.710938 -1.789062 8.410156 -1.34375 8.015625 -0.96875 C 7.628906 -0.59375 7.164062 -0.300781 6.625 -0.09375 C 6.09375 0.101562 5.503906 0.203125 4.859375 0.203125 Z M 4.859375 -1.484375 C 5.222656 -1.484375 5.5625 -1.546875 5.875 -1.671875 C 6.1875 -1.796875 6.453125 -1.96875 6.671875 -2.1875 C 6.898438 -2.414062 7.078125 -2.691406 7.203125 -3.015625 C 7.328125 -3.335938 7.390625 -3.695312 7.390625 -4.09375 C 7.390625 -4.488281 7.328125 -4.84375 7.203125 -5.15625 C 7.078125 -5.476562 6.898438 -5.753906 6.671875 -5.984375 C 6.453125 -6.210938 6.1875 -6.382812 5.875 -6.5 C 5.5625 -6.625 5.222656 -6.6875 4.859375 -6.6875 C 4.484375 -6.6875 4.140625 -6.625 3.828125 -6.5 C 3.523438 -6.382812 3.257812 -6.210938 3.03125 -5.984375 C 2.8125 -5.753906 2.640625 -5.476562 2.515625 -5.15625 C 2.398438 -4.84375 2.34375 -4.488281 2.34375 -4.09375 C 2.34375 -3.695312 2.398438 -3.335938 2.515625 -3.015625 C 2.640625 -2.703125 2.8125 -2.429688 3.03125 -2.203125 C 3.257812 -1.972656 3.53125 -1.796875 3.84375 -1.671875 C 4.15625 -1.546875 4.492188 -1.484375 4.859375 -1.484375 Z M 4.859375 -1.484375 "/></g></g></g><g fill="#ffffff" fill-opacity="1"><g transform="translate(254.944896, 210.839869)"><g><path d="M 4.859375 0.203125 C 4.210938 0.203125 3.617188 0.101562 3.078125 -0.09375 C 2.546875 -0.300781 2.082031 -0.59375 1.6875 -0.96875 C 1.300781 -1.34375 1 -1.789062 0.78125 -2.3125 C 0.570312 -2.84375 0.46875 -3.4375 0.46875 -4.09375 C 0.46875 -4.738281 0.570312 -5.320312 0.78125 -5.84375 C 1 -6.375 1.300781 -6.828125 1.6875 -7.203125 C 2.082031 -7.585938 2.546875 -7.878906 3.078125 -8.078125 C 3.617188 -8.285156 4.210938 -8.390625 4.859375 -8.390625 C 5.578125 -8.390625 6.226562 -8.257812 6.8125 -8 C 7.394531 -7.75 7.878906 -7.394531 8.265625 -6.9375 C 8.359375 -6.832031 8.347656 -6.734375 8.234375 -6.640625 L 7.0625 -5.84375 C 6.945312 -5.769531 6.847656 -5.785156 6.765625 -5.890625 C 6.535156 -6.140625 6.257812 -6.332031 5.9375 -6.46875 C 5.613281 -6.613281 5.253906 -6.6875 4.859375 -6.6875 C 4.484375 -6.6875 4.140625 -6.625 3.828125 -6.5 C 3.523438 -6.382812 3.257812 -6.210938 3.03125 -5.984375 C 2.8125 -5.753906 2.640625 -5.476562 2.515625 -5.15625 C 2.398438 -4.84375 2.34375 -4.488281 2.34375 -4.09375 C 2.34375 -3.6875 2.398438 -3.316406 2.515625 -2.984375 C 2.640625 -2.648438 2.8125 -2.363281 3.03125 -2.125 C 3.257812 -1.894531 3.53125 -1.71875 3.84375 -1.59375 C 4.15625 -1.46875 4.492188 -1.40625 4.859375 -1.40625 C 5.234375 -1.40625 5.578125 -1.472656 5.890625 -1.609375 C 6.203125 -1.742188 6.46875 -1.925781 6.6875 -2.15625 L 6.6875 -2.765625 L 5.09375 -2.765625 C 4.945312 -2.765625 4.875 -2.835938 4.875 -2.984375 L 4.875 -4.0625 C 4.875 -4.207031 4.945312 -4.28125 5.09375 -4.28125 L 8.1875 -4.28125 C 8.320312 -4.28125 8.390625 -4.207031 8.390625 -4.0625 L 8.390625 -1.5625 C 8.390625 -1.457031 8.363281 -1.375 8.3125 -1.3125 C 7.9375 -0.820312 7.453125 -0.445312 6.859375 -0.1875 C 6.265625 0.0703125 5.597656 0.203125 4.859375 0.203125 Z M 4.859375 0.203125 "/></g></g></g><g fill="#ffffff" fill-opacity="1"><g transform="translate(263.937251, 210.839869)"><g><path d="M 2.453125 0 L 1.03125 0 C 0.882812 0 0.8125 -0.0703125 0.8125 -0.21875 L 0.8125 -7.96875 C 0.8125 -8.113281 0.882812 -8.1875 1.03125 -8.1875 L 2.453125 -8.1875 C 2.597656 -8.1875 2.671875 -8.113281 2.671875 -7.96875 L 2.671875 -0.21875 C 2.671875 -0.0703125 2.597656 0 2.453125 0 Z M 2.453125 0 "/></g></g></g><g fill="#ffffff" fill-opacity="1"><g transform="translate(267.415934, 210.839869)"><g><path d="M 4.359375 -8.1875 L 8 -0.265625 C 8.03125 -0.179688 8.03125 -0.113281 8 -0.0625 C 7.976562 -0.0195312 7.925781 0 7.84375 0 L 6.265625 0 C 6.140625 0 6.054688 -0.0546875 6.015625 -0.171875 L 5.65625 -1.078125 L 2.515625 -1.078125 L 2.15625 -0.171875 C 2.113281 -0.0546875 2.03125 0 1.90625 0 L 0.328125 0 C 0.253906 0 0.195312 -0.0195312 0.15625 -0.0625 C 0.125 -0.113281 0.128906 -0.179688 0.171875 -0.265625 L 3.8125 -8.1875 C 3.882812 -8.332031 3.972656 -8.40625 4.078125 -8.40625 C 4.191406 -8.40625 4.285156 -8.332031 4.359375 -8.1875 Z M 4.078125 -5.03125 L 3.078125 -2.515625 L 5.09375 -2.515625 Z M 4.078125 -5.03125 "/></g></g></g></svg>