<svg xmlns="http://www.w3.org/2000/svg" xmlns:xlink="http://www.w3.org/1999/xlink" width="500" zoomAndPan="magnify" viewBox="0 0 375 374.999991" height="500" preserveAspectRatio="xMidYMid meet" version="1.0"><defs><g/></defs><g fill="#004aad" fill-opacity="1"><g transform="translate(36.299652, 197.901762)"><g><path d="M 42.515625 -45.511719 L 42.515625 -55.128906 C 42.515625 -55.410156 42.238281 -55.757812 41.75 -55.757812 L 32.6875 -55.757812 C 18.816406 -55.757812 0 -51.714844 0 -27.878906 C 0 -3.136719 19.027344 0 32.6875 0 L 41.75 0 C 42.238281 0 42.515625 -0.347656 42.515625 -0.628906 L 42.515625 -34.777344 L 21.117188 -34.777344 L 21.117188 -24.117188 L 31.851562 -24.117188 L 31.851562 -10.175781 C 19.722656 -9.546875 10.734375 -14.636719 10.734375 -27.878906 C 10.734375 -45.09375 25.089844 -45.792969 31.851562 -45.511719 Z M 42.515625 -45.511719 "/></g></g></g><g fill="#000000" fill-opacity="1"><g transform="translate(80.983243, 197.901762)"><g><path d="M 32.546875 -33.035156 L 10.664062 -33.035156 L 10.664062 -45.652344 L 26.484375 -45.652344 L 26.484375 -55.757812 L 0.765625 -55.757812 C 0.347656 -55.757812 0 -55.410156 0 -55.128906 L 0 -0.628906 C 0 -0.347656 0.347656 0 0.765625 0 L 10.664062 0 L 10.664062 -22.929688 L 32.546875 -22.929688 C 32.96875 -22.929688 33.316406 -23.277344 33.316406 -23.558594 L 33.316406 -32.410156 C 33.316406 -32.757812 32.96875 -33.035156 32.546875 -33.035156 Z M 32.546875 -33.035156 "/></g></g></g><g fill="#000000" fill-opacity="1"><g transform="translate(115.968367, 197.901762)"><g><path d="M 26.484375 -10.386719 L 10.664062 -10.386719 L 10.664062 -22.929688 L 32.546875 -22.929688 C 32.96875 -22.929688 33.316406 -23.277344 33.316406 -23.558594 L 33.316406 -32.410156 C 33.316406 -32.757812 32.96875 -33.035156 32.546875 -33.035156 L 10.664062 -33.035156 L 10.664062 -45.652344 L 26.484375 -45.652344 L 26.484375 -55.757812 L 0.765625 -55.757812 C 0.347656 -55.757812 0 -55.410156 0 -55.128906 L 0 -0.628906 C 0 -0.347656 0.347656 0 0.765625 0 L 26.484375 0 Z M 26.484375 -10.386719 "/></g></g></g><g fill="#000000" fill-opacity="1"><g transform="translate(150.953491, 197.901762)"><g><path d="M 38.054688 -0.90625 C 34.570312 -8.640625 30.804688 -16.308594 27.320312 -24.183594 C 32.898438 -26.207031 37.566406 -30.667969 37.566406 -39.171875 C 37.566406 -55.617188 21.886719 -55.757812 18.75 -55.757812 L 0.695312 -55.757812 C 0.347656 -55.757812 0 -55.410156 0 -55.128906 L 0 -45.652344 L 18.75 -45.652344 C 20.421875 -45.652344 26.972656 -45.304688 26.972656 -39.171875 C 26.972656 -33.035156 21.046875 -32.757812 18.75 -32.757812 L 0 -32.757812 L 0 -0.628906 C 0 -0.347656 0.347656 0 0.695312 0 L 9.828125 0 C 10.246094 0 10.59375 -0.347656 10.59375 -0.628906 L 10.59375 -22.511719 L 16.589844 -22.511719 L 26.765625 -0.417969 C 26.832031 -0.210938 27.25 0 27.460938 0 L 37.425781 0 C 37.984375 0 38.265625 -0.417969 38.054688 -0.90625 Z M 38.054688 -0.90625 "/></g></g></g><g fill="#004aad" fill-opacity="1"><g transform="translate(187.505675, 197.904165)"><g><path d="M 11.496094 -35.535156 L 11.496094 -0.628906 C 11.496094 -0.347656 11.773438 0 12.261719 0 L 21.25 0 C 21.738281 0 22.085938 -0.347656 22.085938 -0.628906 L 22.085938 -35.535156 Z M 0.765625 -46.195312 L 32.746094 -46.195312 C 33.234375 -46.195312 33.515625 -46.472656 33.515625 -46.820312 L 33.515625 -55.113281 C 33.515625 -55.390625 33.234375 -55.738281 32.746094 -55.738281 L 0.765625 -55.738281 C 0.347656 -55.738281 0 -55.390625 0 -55.113281 L 0 -46.820312 C 0 -46.472656 0.347656 -46.195312 0.765625 -46.195312 Z M 0.765625 -46.195312 "/></g></g></g><g fill="#000000" fill-opacity="1"><g transform="translate(222.697079, 197.904165)"><g><path d="M 26.476562 -10.382812 L 10.660156 -10.382812 L 10.660156 -22.921875 L 32.539062 -22.921875 C 32.957031 -22.921875 33.304688 -23.269531 33.304688 -23.550781 L 33.304688 -32.398438 C 33.304688 -32.746094 32.957031 -33.027344 32.539062 -33.027344 L 10.660156 -33.027344 L 10.660156 -45.636719 L 26.476562 -45.636719 L 26.476562 -55.738281 L 0.765625 -55.738281 C 0.347656 -55.738281 0 -55.390625 0 -55.113281 L 0 -0.628906 C 0 -0.347656 0.347656 0 0.765625 0 L 26.476562 0 Z M 26.476562 -10.382812 "/></g></g></g><g fill="#000000" fill-opacity="1"><g transform="translate(257.670438, 197.904165)"><g><path d="M 31.839844 -10.242188 C 25.082031 -9.964844 10.730469 -10.660156 10.730469 -27.871094 C 10.730469 -41.109375 19.71875 -46.195312 31.839844 -45.566406 L 31.839844 -33.234375 L 42.5 -33.234375 L 42.5 -55.113281 C 42.5 -55.390625 42.222656 -55.738281 41.734375 -55.738281 L 32.675781 -55.738281 C 19.019531 -55.738281 0 -52.605469 0 -27.871094 C 0 -4.042969 18.8125 0 32.675781 0 L 41.734375 0 C 42.222656 0 42.5 -0.347656 42.5 -0.628906 L 42.5 -10.242188 Z M 31.839844 -10.242188 "/></g></g></g><g fill="#000000" fill-opacity="1"><g transform="translate(302.327662, 197.904165)"><g><path d="M 10.660156 -31.5625 L 10.660156 -55.113281 C 10.660156 -55.390625 10.382812 -55.738281 9.894531 -55.738281 L 0.765625 -55.738281 C 0.347656 -55.738281 0 -55.390625 0 -55.113281 L 0 -31.5625 Z M 41.664062 -55.738281 L 32.539062 -55.738281 C 32.121094 -55.738281 31.773438 -55.390625 31.773438 -55.113281 L 31.773438 -20.832031 L 10.660156 -20.832031 L 10.660156 -20.902344 L 0 -20.902344 L 0 -0.628906 C 0 -0.347656 0.347656 0 0.765625 0 L 9.894531 0 C 10.382812 0 10.660156 -0.347656 10.660156 -0.628906 L 10.660156 -10.453125 L 31.773438 -10.453125 L 31.773438 -0.628906 C 31.773438 -0.347656 32.121094 0 32.539062 0 L 41.664062 0 C 42.152344 0 42.433594 -0.347656 42.433594 -0.628906 L 42.433594 -55.113281 C 42.433594 -55.390625 42.152344 -55.738281 41.664062 -55.738281 Z M 41.664062 -55.738281 "/></g></g></g><g fill="#000000" fill-opacity="1"><g transform="translate(114.711007, 210.839897)"><g><path d="M 3.273438 0.207031 C 4.769531 0.207031 6.28125 -0.425781 6.28125 -2.199219 C 6.28125 -3.683594 5.183594 -4.328125 4.1875 -4.816406 C 3.234375 -5.273438 2.460938 -5.574219 2.460938 -6.171875 C 2.460938 -6.640625 2.894531 -6.804688 3.453125 -6.804688 C 3.957031 -6.804688 4.578125 -6.675781 5.125 -6.464844 C 5.257812 -6.414062 5.355469 -6.46875 5.402344 -6.597656 L 5.75 -7.710938 C 5.796875 -7.84375 5.753906 -7.9375 5.617188 -7.988281 C 4.878906 -8.238281 4.039062 -8.390625 3.398438 -8.390625 C 1.945312 -8.390625 0.570312 -7.726562 0.570312 -6.035156 C 0.570312 -4.746094 1.445312 -4.109375 2.414062 -3.597656 C 3.398438 -3.078125 4.386719 -2.742188 4.386719 -2.117188 C 4.386719 -1.613281 3.933594 -1.386719 3.261719 -1.386719 C 2.683594 -1.386719 1.941406 -1.539062 1.199219 -1.832031 C 1.066406 -1.882812 0.964844 -1.847656 0.917969 -1.710938 L 0.515625 -0.539062 C 0.464844 -0.398438 0.511719 -0.308594 0.648438 -0.253906 C 1.652344 0.078125 2.476562 0.207031 3.273438 0.207031 Z M 3.273438 0.207031 "/></g></g></g><g fill="#000000" fill-opacity="1"><g transform="translate(121.433964, 210.839897)"><g><path d="M 4.859375 0.207031 C 7.449219 0.207031 9.253906 -1.496094 9.253906 -4.09375 C 9.253906 -6.6875 7.449219 -8.390625 4.859375 -8.390625 C 2.273438 -8.390625 0.472656 -6.6875 0.472656 -4.09375 C 0.472656 -1.496094 2.273438 0.207031 4.859375 0.207031 Z M 4.859375 -1.492188 C 3.390625 -1.492188 2.339844 -2.507812 2.339844 -4.09375 C 2.339844 -5.679688 3.382812 -6.691406 4.859375 -6.691406 C 6.335938 -6.691406 7.390625 -5.679688 7.390625 -4.09375 C 7.390625 -2.503906 6.335938 -1.492188 4.859375 -1.492188 Z M 4.859375 -1.492188 "/></g></g></g><g fill="#000000" fill-opacity="1"><g transform="translate(131.17213, 210.839897)"><g><path d="M 5.125 0 C 5.269531 0 5.34375 -0.0742188 5.34375 -0.21875 L 5.34375 -1.390625 C 5.34375 -1.527344 5.269531 -1.609375 5.125 -1.609375 L 2.667969 -1.609375 L 2.667969 -7.964844 C 2.667969 -8.109375 2.59375 -8.183594 2.449219 -8.183594 L 1.027344 -8.183594 C 0.882812 -8.183594 0.808594 -8.109375 0.808594 -7.964844 L 0.808594 -0.21875 C 0.808594 -0.0742188 0.882812 0 1.027344 0 Z M 5.125 0 "/></g></g></g><g fill="#000000" fill-opacity="1"><g transform="translate(136.717776, 210.839897)"><g><path d="M 4.1875 0.207031 C 6.070312 0.207031 7.640625 -0.644531 7.640625 -2.71875 L 7.640625 -7.964844 C 7.640625 -8.109375 7.5625 -8.183594 7.421875 -8.183594 L 5.953125 -8.183594 C 5.808594 -8.183594 5.734375 -8.109375 5.734375 -7.964844 L 5.734375 -3.160156 C 5.734375 -1.957031 5.179688 -1.488281 4.1875 -1.488281 C 3.207031 -1.488281 2.644531 -1.957031 2.644531 -3.160156 L 2.644531 -7.964844 C 2.644531 -8.109375 2.566406 -8.183594 2.425781 -8.183594 L 0.953125 -8.183594 C 0.816406 -8.183594 0.734375 -8.109375 0.734375 -7.964844 L 0.734375 -2.71875 C 0.734375 -0.644531 2.351562 0.207031 4.1875 0.207031 Z M 4.1875 0.207031 "/></g></g></g><g fill="#000000" fill-opacity="1"><g transform="translate(145.092173, 210.839897)"><g><path d="M 7.058594 -2.332031 C 6.949219 -2.414062 6.851562 -2.398438 6.761719 -2.292969 C 6.3125 -1.796875 5.648438 -1.492188 4.859375 -1.492188 C 3.390625 -1.492188 2.339844 -2.507812 2.339844 -4.09375 C 2.339844 -5.679688 3.390625 -6.691406 4.855469 -6.691406 C 5.648438 -6.691406 6.308594 -6.390625 6.761719 -5.894531 C 6.851562 -5.785156 6.953125 -5.769531 7.058594 -5.851562 L 8.230469 -6.648438 C 8.34375 -6.734375 8.367188 -6.835938 8.269531 -6.941406 C 7.492188 -7.847656 6.296875 -8.390625 4.855469 -8.390625 C 2.285156 -8.390625 0.472656 -6.691406 0.472656 -4.09375 C 0.472656 -1.640625 2.078125 0.0117188 4.417969 0.191406 L 4.316406 0.582031 C 4.285156 0.730469 4.347656 0.800781 4.496094 0.832031 C 4.785156 0.878906 4.9375 1.011719 4.9375 1.269531 C 4.9375 1.59375 4.644531 1.699219 4.285156 1.726562 C 4.152344 1.738281 4.078125 1.800781 4.042969 1.921875 L 3.949219 2.324219 C 3.917969 2.472656 3.992188 2.5625 4.15625 2.550781 C 5.425781 2.5 5.957031 2.003906 5.957031 1.363281 C 5.957031 0.800781 5.507812 0.542969 5.039062 0.480469 L 5.113281 0.203125 C 6.464844 0.136719 7.570312 -0.398438 8.289062 -1.257812 C 8.375 -1.359375 8.347656 -1.449219 8.230469 -1.539062 Z M 7.058594 -2.332031 "/></g></g></g><g fill="#000000" fill-opacity="1"><g transform="translate(153.775549, 210.839897)"><g><path d="M 5.644531 -8.785156 C 6.113281 -8.785156 6.410156 -9.046875 6.648438 -9.542969 L 6.730469 -9.703125 C 6.789062 -9.824219 6.742188 -9.9375 6.628906 -9.996094 L 6.164062 -10.210938 C 6.03125 -10.273438 5.9375 -10.21875 5.878906 -10.101562 L 5.792969 -9.933594 C 5.726562 -9.804688 5.644531 -9.734375 5.535156 -9.734375 C 5.425781 -9.734375 5.292969 -9.816406 5.132812 -9.925781 C 4.789062 -10.152344 4.449219 -10.273438 4.15625 -10.273438 C 3.714844 -10.273438 3.3125 -10.050781 3.085938 -9.542969 L 3.039062 -9.457031 C 2.980469 -9.328125 3.027344 -9.230469 3.136719 -9.171875 L 3.597656 -8.929688 C 3.71875 -8.859375 3.816406 -8.882812 3.878906 -8.996094 C 4.023438 -9.21875 4.082031 -9.335938 4.289062 -9.335938 C 4.511719 -9.335938 4.6875 -9.210938 4.886719 -9.074219 C 5.09375 -8.925781 5.324219 -8.785156 5.644531 -8.785156 Z M 4.859375 0.207031 C 7.449219 0.207031 9.253906 -1.496094 9.253906 -4.09375 C 9.253906 -6.6875 7.449219 -8.390625 4.859375 -8.390625 C 2.273438 -8.390625 0.472656 -6.6875 0.472656 -4.09375 C 0.472656 -1.496094 2.273438 0.207031 4.859375 0.207031 Z M 4.859375 -1.492188 C 3.390625 -1.492188 2.339844 -2.507812 2.339844 -4.09375 C 2.339844 -5.679688 3.382812 -6.691406 4.859375 -6.691406 C 6.335938 -6.691406 7.390625 -5.679688 7.390625 -4.09375 C 7.390625 -2.503906 6.335938 -1.492188 4.859375 -1.492188 Z M 4.859375 -1.492188 "/></g></g></g><g fill="#000000" fill-opacity="1"><g transform="translate(163.513715, 210.839897)"><g><path d="M 5.800781 0 C 5.945312 0 6.019531 -0.0742188 6.019531 -0.21875 L 6.019531 -1.390625 C 6.019531 -1.527344 5.945312 -1.609375 5.800781 -1.609375 L 2.667969 -1.609375 L 2.667969 -2.761719 L 5.375 -2.761719 C 5.519531 -2.761719 5.59375 -2.835938 5.59375 -2.980469 L 5.59375 -4.066406 C 5.59375 -4.210938 5.519531 -4.285156 5.375 -4.285156 L 2.667969 -4.285156 L 2.667969 -6.574219 L 5.800781 -6.574219 C 5.945312 -6.574219 6.019531 -6.65625 6.019531 -6.792969 L 6.019531 -7.964844 C 6.019531 -8.109375 5.945312 -8.183594 5.800781 -8.183594 L 1.027344 -8.183594 C 0.882812 -8.183594 0.808594 -8.109375 0.808594 -7.964844 L 0.808594 -0.21875 C 0.808594 -0.0742188 0.882812 0 1.027344 0 Z M 5.800781 0 "/></g></g></g><g fill="#000000" fill-opacity="1"><g transform="translate(170.103497, 210.839897)"><g><path d="M 3.273438 0.207031 C 4.769531 0.207031 6.28125 -0.425781 6.28125 -2.199219 C 6.28125 -3.683594 5.183594 -4.328125 4.1875 -4.816406 C 3.234375 -5.273438 2.460938 -5.574219 2.460938 -6.171875 C 2.460938 -6.640625 2.894531 -6.804688 3.453125 -6.804688 C 3.957031 -6.804688 4.578125 -6.675781 5.125 -6.464844 C 5.257812 -6.414062 5.355469 -6.46875 5.402344 -6.597656 L 5.75 -7.710938 C 5.796875 -7.84375 5.753906 -7.9375 5.617188 -7.988281 C 4.878906 -8.238281 4.039062 -8.390625 3.398438 -8.390625 C 1.945312 -8.390625 0.570312 -7.726562 0.570312 -6.035156 C 0.570312 -4.746094 1.445312 -4.109375 2.414062 -3.597656 C 3.398438 -3.078125 4.386719 -2.742188 4.386719 -2.117188 C 4.386719 -1.613281 3.933594 -1.386719 3.261719 -1.386719 C 2.683594 -1.386719 1.941406 -1.539062 1.199219 -1.832031 C 1.066406 -1.882812 0.964844 -1.847656 0.917969 -1.710938 L 0.515625 -0.539062 C 0.464844 -0.398438 0.511719 -0.308594 0.648438 -0.253906 C 1.652344 0.078125 2.476562 0.207031 3.273438 0.207031 Z M 3.273438 0.207031 "/></g></g></g><g fill="#000000" fill-opacity="1"><g transform="translate(176.826455, 210.839897)"><g/></g></g><g fill="#000000" fill-opacity="1"><g transform="translate(180.214569, 210.839897)"><g><path d="M 5.800781 0 C 5.945312 0 6.019531 -0.0742188 6.019531 -0.21875 L 6.019531 -1.390625 C 6.019531 -1.527344 5.945312 -1.609375 5.800781 -1.609375 L 2.667969 -1.609375 L 2.667969 -2.761719 L 5.375 -2.761719 C 5.519531 -2.761719 5.59375 -2.835938 5.59375 -2.980469 L 5.59375 -4.066406 C 5.59375 -4.210938 5.519531 -4.285156 5.375 -4.285156 L 2.667969 -4.285156 L 2.667969 -6.574219 L 5.800781 -6.574219 C 5.945312 -6.574219 6.019531 -6.65625 6.019531 -6.792969 L 6.019531 -7.964844 C 6.019531 -8.109375 5.945312 -8.183594 5.800781 -8.183594 L 1.027344 -8.183594 C 0.882812 -8.183594 0.808594 -8.109375 0.808594 -7.964844 L 0.808594 -0.21875 C 0.808594 -0.0742188 0.882812 0 1.027344 0 Z M 5.800781 0 "/></g></g></g><g fill="#000000" fill-opacity="1"><g transform="translate(186.804352, 210.839897)"><g><path d="M 2.425781 0 C 2.5625 0 2.644531 -0.0742188 2.644531 -0.21875 L 2.644531 -3.910156 L 4.710938 -1.351562 C 4.804688 -1.230469 4.917969 -1.230469 5.015625 -1.351562 L 7.097656 -3.925781 L 7.097656 -0.21875 C 7.097656 -0.0742188 7.175781 0 7.316406 0 L 8.703125 0 C 8.84375 0 8.917969 -0.0742188 8.917969 -0.21875 L 8.917969 -8.003906 C 8.917969 -8.40625 8.636719 -8.503906 8.386719 -8.183594 L 4.859375 -3.660156 L 1.351562 -8.183594 C 1.097656 -8.515625 0.820312 -8.40625 0.820312 -8.003906 L 0.820312 -0.21875 C 0.820312 -0.0742188 0.894531 0 1.039062 0 Z M 2.425781 0 "/></g></g></g><g fill="#000000" fill-opacity="1"><g transform="translate(196.542518, 210.839897)"><g/></g></g><g fill="#000000" fill-opacity="1"><g transform="translate(199.930632, 210.839897)"><g><path d="M 3.773438 0 C 3.910156 0 3.992188 -0.0742188 3.992188 -0.21875 L 3.992188 -6.574219 L 5.695312 -6.574219 C 5.839844 -6.574219 5.914062 -6.65625 5.914062 -6.792969 L 5.914062 -7.964844 C 5.914062 -8.109375 5.839844 -8.183594 5.695312 -8.183594 L 0.410156 -8.183594 C 0.273438 -8.183594 0.191406 -8.109375 0.191406 -7.964844 L 0.191406 -6.792969 C 0.191406 -6.65625 0.273438 -6.574219 0.410156 -6.574219 L 2.117188 -6.574219 L 2.117188 -0.21875 C 2.117188 -0.0742188 2.195312 0 2.332031 0 Z M 3.773438 0 "/></g></g></g><g fill="#000000" fill-opacity="1"><g transform="translate(206.046286, 210.839897)"><g><path d="M 5.800781 0 C 5.945312 0 6.019531 -0.0742188 6.019531 -0.21875 L 6.019531 -1.390625 C 6.019531 -1.527344 5.945312 -1.609375 5.800781 -1.609375 L 2.667969 -1.609375 L 2.667969 -2.761719 L 5.375 -2.761719 C 5.519531 -2.761719 5.59375 -2.835938 5.59375 -2.980469 L 5.59375 -4.066406 C 5.59375 -4.210938 5.519531 -4.285156 5.375 -4.285156 L 2.667969 -4.285156 L 2.667969 -6.574219 L 5.800781 -6.574219 C 5.945312 -6.574219 6.019531 -6.65625 6.019531 -6.792969 L 6.019531 -7.964844 C 6.019531 -8.109375 5.945312 -8.183594 5.800781 -8.183594 L 1.027344 -8.183594 C 0.882812 -8.183594 0.808594 -8.109375 0.808594 -7.964844 L 0.808594 -0.21875 C 0.808594 -0.0742188 0.882812 0 1.027344 0 Z M 5.800781 0 "/></g></g></g><g fill="#000000" fill-opacity="1"><g transform="translate(212.636068, 210.839897)"><g><path d="M 4.855469 0.207031 C 6.320312 0.207031 7.523438 -0.347656 8.289062 -1.257812 C 8.375 -1.359375 8.347656 -1.449219 8.230469 -1.539062 L 7.058594 -2.332031 C 6.949219 -2.414062 6.851562 -2.398438 6.761719 -2.292969 C 6.3125 -1.796875 5.648438 -1.492188 4.859375 -1.492188 C 3.390625 -1.492188 2.339844 -2.507812 2.339844 -4.09375 C 2.339844 -5.679688 3.390625 -6.691406 4.855469 -6.691406 C 5.648438 -6.691406 6.308594 -6.390625 6.761719 -5.894531 C 6.851562 -5.785156 6.953125 -5.769531 7.058594 -5.851562 L 8.230469 -6.648438 C 8.34375 -6.734375 8.367188 -6.835938 8.269531 -6.941406 C 7.492188 -7.847656 6.296875 -8.390625 4.855469 -8.390625 C 2.285156 -8.390625 0.472656 -6.691406 0.472656 -4.09375 C 0.472656 -1.492188 2.28125 0.207031 4.855469 0.207031 Z M 4.855469 0.207031 "/></g></g></g><g fill="#000000" fill-opacity="1"><g transform="translate(221.319444, 210.839897)"><g><path d="M 2.410156 0 C 2.546875 0 2.621094 -0.0742188 2.621094 -0.21875 L 2.621094 -4.671875 L 7.203125 0 C 7.519531 0.3125 7.785156 0.1875 7.785156 -0.191406 L 7.785156 -7.964844 C 7.785156 -8.109375 7.703125 -8.183594 7.566406 -8.183594 L 6.195312 -8.183594 C 6.054688 -8.183594 5.976562 -8.109375 5.976562 -7.964844 L 5.976562 -3.617188 L 1.351562 -8.226562 C 1.058594 -8.503906 0.820312 -8.375 0.820312 -7.996094 L 0.820312 -0.21875 C 0.820312 -0.0742188 0.894531 0 1.039062 0 Z M 2.410156 0 "/></g></g></g><g fill="#000000" fill-opacity="1"><g transform="translate(229.922917, 210.839897)"><g><path d="M 4.859375 0.207031 C 7.449219 0.207031 9.253906 -1.496094 9.253906 -4.09375 C 9.253906 -6.6875 7.449219 -8.390625 4.859375 -8.390625 C 2.273438 -8.390625 0.472656 -6.6875 0.472656 -4.09375 C 0.472656 -1.496094 2.273438 0.207031 4.859375 0.207031 Z M 4.859375 -1.492188 C 3.390625 -1.492188 2.339844 -2.507812 2.339844 -4.09375 C 2.339844 -5.679688 3.382812 -6.691406 4.859375 -6.691406 C 6.335938 -6.691406 7.390625 -5.679688 7.390625 -4.09375 C 7.390625 -2.503906 6.335938 -1.492188 4.859375 -1.492188 Z M 4.859375 -1.492188 "/></g></g></g><g fill="#000000" fill-opacity="1"><g transform="translate(239.661083, 210.839897)"><g><path d="M 5.125 0 C 5.269531 0 5.34375 -0.0742188 5.34375 -0.21875 L 5.34375 -1.390625 C 5.34375 -1.527344 5.269531 -1.609375 5.125 -1.609375 L 2.667969 -1.609375 L 2.667969 -7.964844 C 2.667969 -8.109375 2.59375 -8.183594 2.449219 -8.183594 L 1.027344 -8.183594 C 0.882812 -8.183594 0.808594 -8.109375 0.808594 -7.964844 L 0.808594 -0.21875 C 0.808594 -0.0742188 0.882812 0 1.027344 0 Z M 5.125 0 "/></g></g></g><g fill="#000000" fill-opacity="1"><g transform="translate(245.20673, 210.839897)"><g><path d="M 4.859375 0.207031 C 7.449219 0.207031 9.253906 -1.496094 9.253906 -4.09375 C 9.253906 -6.6875 7.449219 -8.390625 4.859375 -8.390625 C 2.273438 -8.390625 0.472656 -6.6875 0.472656 -4.09375 C 0.472656 -1.496094 2.273438 0.207031 4.859375 0.207031 Z M 4.859375 -1.492188 C 3.390625 -1.492188 2.339844 -2.507812 2.339844 -4.09375 C 2.339844 -5.679688 3.382812 -6.691406 4.859375 -6.691406 C 6.335938 -6.691406 7.390625 -5.679688 7.390625 -4.09375 C 7.390625 -2.503906 6.335938 -1.492188 4.859375 -1.492188 Z M 4.859375 -1.492188 "/></g></g></g><g fill="#000000" fill-opacity="1"><g transform="translate(254.944896, 210.839897)"><g><path d="M 4.859375 0.207031 C 6.339844 0.207031 7.566406 -0.347656 8.324219 -1.3125 C 8.382812 -1.378906 8.402344 -1.453125 8.402344 -1.554688 L 8.402344 -4.066406 C 8.402344 -4.210938 8.328125 -4.285156 8.183594 -4.285156 L 5.097656 -4.285156 C 4.960938 -4.285156 4.878906 -4.210938 4.878906 -4.066406 L 4.878906 -2.980469 C 4.878906 -2.835938 4.960938 -2.761719 5.097656 -2.761719 L 6.699219 -2.761719 L 6.699219 -2.164062 C 6.253906 -1.6875 5.617188 -1.40625 4.859375 -1.40625 C 3.390625 -1.40625 2.339844 -2.457031 2.339844 -4.09375 C 2.339844 -5.679688 3.382812 -6.691406 4.859375 -6.691406 C 5.648438 -6.691406 6.308594 -6.390625 6.761719 -5.894531 C 6.851562 -5.785156 6.949219 -5.769531 7.058594 -5.851562 L 8.230469 -6.648438 C 8.347656 -6.734375 8.367188 -6.835938 8.269531 -6.941406 C 7.492188 -7.847656 6.296875 -8.390625 4.859375 -8.390625 C 2.273438 -8.390625 0.472656 -6.6875 0.472656 -4.09375 C 0.472656 -1.496094 2.273438 0.207031 4.859375 0.207031 Z M 4.859375 0.207031 "/></g></g></g><g fill="#000000" fill-opacity="1"><g transform="translate(263.937251, 210.839897)"><g><path d="M 2.449219 0 C 2.59375 0 2.667969 -0.0742188 2.667969 -0.21875 L 2.667969 -7.964844 C 2.667969 -8.109375 2.59375 -8.183594 2.449219 -8.183594 L 1.027344 -8.183594 C 0.882812 -8.183594 0.808594 -8.109375 0.808594 -7.964844 L 0.808594 -0.21875 C 0.808594 -0.0742188 0.882812 0 1.027344 0 Z M 2.449219 0 "/></g></g></g><g fill="#000000" fill-opacity="1"><g transform="translate(267.415934, 210.839897)"><g><path d="M 4.359375 -8.183594 C 4.210938 -8.492188 3.964844 -8.492188 3.820312 -8.183594 L 0.171875 -0.261719 C 0.101562 -0.105469 0.171875 0 0.332031 0 L 1.902344 0 C 2.023438 0 2.109375 -0.0585938 2.152344 -0.171875 L 2.515625 -1.078125 L 5.660156 -1.078125 L 6.019531 -0.171875 C 6.0625 -0.0585938 6.148438 0 6.273438 0 L 7.84375 0 C 8.007812 0 8.074219 -0.105469 8.007812 -0.261719 Z M 4.085938 -5.03125 L 5.09375 -2.507812 L 3.085938 -2.507812 Z M 4.085938 -5.03125 "/></g></g></g></svg>